<svg xmlns="http://www.w3.org/2000/svg" xmlns:xlink="http://www.w3.org/1999/xlink" width="1280" zoomAndPan="magnify" viewBox="0 0 960 540.000001" height="720" preserveAspectRatio="xMidYMid meet" version="1.2"><defs><clipPath id="e52a071677"><path d="M 870 275 L 959.113281 275 L 959.113281 331 L 870 331 Z M 870 275 "/></clipPath></defs><g id="4e8084a5fb"><g style="fill:#545454;fill-opacity:0.2706;"><g transform="translate(21.018691, 332.751329)"><path style="stroke:none" d="M 146.59375 45.765625 C 145.476562 45.265625 144.488281 44.332031 143.625 42.96875 C 142.875 41.601562 141.816406 39 140.453125 35.15625 C 139.710938 33.050781 138.660156 30.265625 137.296875 26.796875 C 135.804688 23.191406 134.378906 20.023438 133.015625 17.296875 C 128.054688 7.128906 123.15625 -1.488281 118.3125 -8.5625 C 113.476562 -15.5 107.773438 -22.195312 101.203125 -28.65625 C 96.492188 -33.488281 92.09375 -37.457031 88 -40.5625 C 83.90625 -43.65625 78.632812 -47.125 72.1875 -50.96875 C 66.601562 -54.320312 63.191406 -56.304688 61.953125 -56.921875 C 60.710938 -57.671875 59.96875 -57.921875 59.71875 -57.671875 C 59.46875 -57.546875 59.15625 -55.992188 58.78125 -53.015625 C 58.414062 -50.046875 58.109375 -46.757812 57.859375 -43.15625 C 57.609375 -41.175781 57.421875 -39.191406 57.296875 -37.203125 C 57.171875 -35.222656 57.109375 -33.425781 57.109375 -31.8125 C 56.859375 -24.863281 57.046875 -19.222656 57.671875 -14.890625 C 58.410156 -10.671875 59.648438 -7.257812 61.390625 -4.65625 C 62.253906 -3.414062 63.679688 -2.234375 65.671875 -1.109375 C 67.648438 -0.117188 70.003906 0.742188 72.734375 1.484375 C 74.472656 1.984375 75.835938 2.484375 76.828125 2.984375 C 77.828125 3.347656 78.570312 3.84375 79.0625 4.46875 C 80.550781 6.195312 80.925781 8.117188 80.1875 10.234375 C 79.4375 12.335938 77.945312 13.640625 75.71875 14.140625 C 75.21875 14.265625 74.347656 14.265625 73.109375 14.140625 C 71.867188 14.015625 70.628906 13.765625 69.390625 13.390625 C 63.554688 12.023438 58.78125 9.734375 55.0625 6.515625 C 51.46875 3.160156 48.800781 -1.242188 47.0625 -6.703125 C 45.332031 -12.035156 44.46875 -18.546875 44.46875 -26.234375 C 44.34375 -34.046875 45.082031 -43.71875 46.6875 -55.25 C 46.9375 -57.363281 47.375 -60.648438 48 -65.109375 C 47.625 -65.359375 47.003906 -65.796875 46.140625 -66.421875 C 44.273438 -67.660156 41.734375 -70.015625 38.515625 -73.484375 C 35.160156 -76.828125 32.738281 -79.554688 31.25 -81.671875 C 29.394531 -84.398438 28.34375 -86.507812 28.09375 -88 C 27.96875 -89.488281 28.585938 -90.914062 29.953125 -92.28125 C 30.941406 -93.269531 32.054688 -93.890625 33.296875 -94.140625 C 34.660156 -94.378906 35.898438 -94.191406 37.015625 -93.578125 C 37.390625 -93.453125 38.007812 -92.894531 38.875 -91.90625 C 39.625 -90.90625 40.492188 -89.785156 41.484375 -88.546875 C 43.222656 -86.191406 45.019531 -84.023438 46.875 -82.046875 C 48.738281 -80.179688 49.859375 -79.375 50.234375 -79.625 C 50.359375 -79.75 50.851562 -81.859375 51.71875 -85.953125 C 52.582031 -89.921875 53.570312 -94.753906 54.6875 -100.453125 C 55.8125 -106.035156 56.804688 -110.9375 57.671875 -115.15625 C 58.660156 -119.375 59.21875 -121.726562 59.34375 -122.21875 C 59.84375 -123.09375 60.835938 -123.898438 62.328125 -124.640625 C 63.691406 -125.265625 64.929688 -125.453125 66.046875 -125.203125 C 67.160156 -124.953125 68.148438 -124.394531 69.015625 -123.53125 C 69.890625 -122.65625 70.445312 -121.722656 70.6875 -120.734375 C 70.8125 -120.117188 70.503906 -117.640625 69.765625 -113.296875 C 69.015625 -109.078125 67.898438 -103.375 66.421875 -96.1875 C 65.171875 -89.976562 64.113281 -84.519531 63.25 -79.8125 C 62.382812 -75.09375 61.953125 -72.613281 61.953125 -72.375 C 61.953125 -71.75 63.5 -70.753906 66.59375 -69.390625 C 69.695312 -68.023438 73.171875 -66.910156 77.015625 -66.046875 C 80.859375 -65.046875 85.882812 -64.488281 92.09375 -64.375 C 98.164062 -64.375 102.816406 -64.804688 106.046875 -65.671875 C 113.984375 -67.773438 120.554688 -71.679688 125.765625 -77.390625 C 130.972656 -82.972656 134.195312 -89.609375 135.4375 -97.296875 C 136.925781 -106.972656 134.320312 -115.34375 127.625 -122.40625 C 120.800781 -129.476562 110.628906 -134.503906 97.109375 -137.484375 C 95.617188 -137.734375 93.695312 -137.976562 91.34375 -138.21875 C 88.988281 -138.34375 86.445312 -138.46875 83.71875 -138.59375 C 78.507812 -138.71875 73.238281 -138.65625 67.90625 -138.40625 C 62.445312 -138.15625 58.289062 -137.722656 55.4375 -137.109375 C 45.519531 -134.878906 37.332031 -131.34375 30.875 -126.5 C 24.300781 -121.664062 19.835938 -115.710938 17.484375 -108.640625 C 16.742188 -106.660156 16.3125 -105.050781 16.1875 -103.8125 C 16.0625 -102.570312 16.0625 -100.648438 16.1875 -98.046875 C 16.1875 -95.804688 16.3125 -94.003906 16.5625 -92.640625 C 16.800781 -91.273438 17.171875 -90.035156 17.671875 -88.921875 C 18.421875 -87.191406 19.785156 -85.207031 21.765625 -82.96875 C 23.753906 -80.738281 25.613281 -79.128906 27.34375 -78.140625 C 29.457031 -76.773438 30.695312 -75.097656 31.0625 -73.109375 C 31.3125 -71.003906 30.507812 -69.207031 28.65625 -67.71875 C 27.289062 -66.476562 25.925781 -65.984375 24.5625 -66.234375 C 23.195312 -66.472656 21.210938 -67.523438 18.609375 -69.390625 C 10.546875 -74.972656 5.644531 -82.660156 3.90625 -92.453125 C 3.53125 -94.816406 3.34375 -97.238281 3.34375 -99.71875 C 3.34375 -106.90625 5.390625 -113.972656 9.484375 -120.921875 C 10.972656 -123.523438 13.207031 -126.441406 16.1875 -129.671875 C 19.164062 -132.890625 21.957031 -135.429688 24.5625 -137.296875 C 28.894531 -140.390625 34.039062 -143.054688 40 -145.296875 C 45.945312 -147.523438 52.085938 -149.132812 58.421875 -150.125 C 59.785156 -150.375 61.519531 -150.5625 63.625 -150.6875 C 65.601562 -150.9375 67.773438 -151.0625 70.140625 -151.0625 C 72.742188 -151.1875 75.347656 -151.25 77.953125 -151.25 L 83.34375 -151.25 C 87.9375 -151.125 91.410156 -150.875 93.765625 -150.5 C 105.796875 -148.757812 116.210938 -145.226562 125.015625 -139.90625 C 133.816406 -134.6875 140.082031 -128.296875 143.8125 -120.734375 C 145.539062 -117.265625 146.71875 -113.914062 147.34375 -110.6875 C 147.957031 -107.34375 148.203125 -103.6875 148.078125 -99.71875 C 147.335938 -87.1875 142.441406 -76.394531 133.390625 -67.34375 C 124.335938 -58.289062 113.359375 -53.269531 100.453125 -52.28125 C 99.210938 -52.15625 98.097656 -52.03125 97.109375 -51.90625 C 96.117188 -51.65625 95.5625 -51.46875 95.4375 -51.34375 C 95.4375 -51.21875 95.6875 -50.910156 96.1875 -50.421875 C 96.675781 -49.796875 97.359375 -49.175781 98.234375 -48.5625 C 104.054688 -43.84375 109.445312 -38.753906 114.40625 -33.296875 C 119.375 -27.835938 124.023438 -21.945312 128.359375 -15.625 C 133.203125 -8.550781 137.671875 -0.925781 141.765625 7.25 C 145.972656 15.4375 149.441406 23.191406 152.171875 30.515625 C 153.785156 35.097656 154.59375 38.382812 154.59375 40.375 L 154.59375 40.734375 C 154.46875 42.847656 153.414062 44.398438 151.4375 45.390625 C 150.4375 45.890625 149.628906 46.203125 149.015625 46.328125 L 148.828125 46.328125 C 148.203125 46.328125 147.457031 46.140625 146.59375 45.765625 Z M 146.59375 45.765625 "/></g></g><g style="fill:#545454;fill-opacity:0.2706;"><g transform="translate(163.745439, 332.751329)"><path style="stroke:none" d="M 36.09375 -52.828125 C 36.832031 -51.347656 37.140625 -49.425781 37.015625 -47.0625 C 36.890625 -44.582031 36.457031 -42.351562 35.71875 -40.375 C 34.226562 -37.144531 31.5625 -34.101562 27.71875 -31.25 C 23.875 -28.519531 19.65625 -26.597656 15.0625 -25.484375 C 11.96875 -24.867188 10.234375 -24.4375 9.859375 -24.1875 C 9.484375 -23.9375 9.421875 -23.128906 9.671875 -21.765625 C 10.535156 -17.546875 12.582031 -14.382812 15.8125 -12.28125 C 19.039062 -10.050781 22.820312 -9.367188 27.15625 -10.234375 C 32.988281 -11.222656 38.941406 -14.257812 45.015625 -19.34375 C 51.097656 -24.3125 56.929688 -30.882812 62.515625 -39.0625 C 62.515625 -39.1875 62.570312 -39.3125 62.6875 -39.4375 C 62.6875 -39.5625 62.75 -39.6875 62.875 -39.8125 C 63.75 -41.175781 65.363281 -41.734375 67.71875 -41.484375 C 69.945312 -41.234375 71.5 -40.242188 72.375 -38.515625 C 72.613281 -38.015625 72.734375 -37.332031 72.734375 -36.46875 L 72.734375 -36.09375 C 72.609375 -34.976562 72.175781 -33.800781 71.4375 -32.5625 C 66.101562 -24.5 60.210938 -17.675781 53.765625 -12.09375 C 47.316406 -6.632812 40.804688 -2.851562 34.234375 -0.75 C 31.878906 0.125 29.085938 0.6875 25.859375 0.9375 C 24.617188 1.050781 23.441406 1.109375 22.328125 1.109375 C 20.585938 1.109375 19.097656 0.925781 17.859375 0.5625 C 11.035156 -0.800781 5.828125 -4.585938 2.234375 -10.796875 C -0.492188 -15.503906 -1.859375 -20.835938 -1.859375 -26.796875 C -1.859375 -28.648438 -1.734375 -30.570312 -1.484375 -32.5625 C -0.367188 -40.738281 2.476562 -47.492188 7.0625 -52.828125 C 11.78125 -58.035156 17.113281 -60.640625 23.0625 -60.640625 C 25.789062 -60.640625 28.335938 -59.898438 30.703125 -58.421875 C 33.054688 -57.054688 34.851562 -55.191406 36.09375 -52.828125 Z M 10.96875 -37.765625 C 10.851562 -37.140625 10.851562 -36.769531 10.96875 -36.65625 C 11.09375 -36.53125 11.59375 -36.46875 12.46875 -36.46875 C 12.957031 -36.46875 13.765625 -36.648438 14.890625 -37.015625 C 16.003906 -37.265625 17.054688 -37.703125 18.046875 -38.328125 C 21.390625 -39.816406 23.742188 -41.738281 25.109375 -44.09375 C 26.597656 -46.570312 26.476562 -48.304688 24.75 -49.296875 L 23.625 -49.671875 L 22.515625 -49.671875 C 20.523438 -49.546875 18.351562 -48.304688 16 -45.953125 C 13.644531 -43.722656 11.96875 -40.992188 10.96875 -37.765625 Z M 10.96875 -37.765625 "/></g></g><g style="fill:#545454;fill-opacity:0.2706;"><g transform="translate(220.529776, 332.751329)"><path style="stroke:none" d="M 7.25 -5.015625 C 5.144531 -5.390625 3.160156 -6.257812 1.296875 -7.625 C -0.554688 -8.863281 -2.039062 -10.351562 -3.15625 -12.09375 C -4.03125 -13.457031 -4.59375 -14.632812 -4.84375 -15.625 C -5.082031 -16.613281 -5.265625 -18.226562 -5.390625 -20.46875 L -5.390625 -22.875 C -5.390625 -24 -5.328125 -24.929688 -5.203125 -25.671875 C -5.078125 -26.910156 -4.644531 -28.585938 -3.90625 -30.703125 C -2.914062 -33.671875 -1.675781 -36.335938 -0.1875 -38.703125 C 1.300781 -41.054688 3.035156 -43.160156 5.015625 -45.015625 C 7.253906 -47.003906 9.300781 -48.429688 11.15625 -49.296875 C 13.019531 -50.171875 15.128906 -50.609375 17.484375 -50.609375 C 20.460938 -50.609375 22.941406 -49.984375 24.921875 -48.734375 C 26.910156 -47.492188 28.648438 -45.453125 30.140625 -42.609375 C 31.878906 -39.253906 32.4375 -36.460938 31.8125 -34.234375 C 31.3125 -32.117188 29.695312 -31.0625 26.96875 -31.0625 C 25.726562 -31.0625 24.613281 -31.5 23.625 -32.375 C 22.757812 -33.238281 21.953125 -34.539062 21.203125 -36.28125 C 20.460938 -37.894531 19.660156 -38.945312 18.796875 -39.4375 C 17.796875 -39.8125 16.613281 -39.6875 15.25 -39.0625 C 12.894531 -37.945312 10.789062 -35.78125 8.9375 -32.5625 C 6.945312 -29.332031 5.828125 -26.101562 5.578125 -22.875 C 5.453125 -21.144531 5.453125 -19.96875 5.578125 -19.34375 C 5.703125 -18.851562 6.140625 -18.234375 6.890625 -17.484375 C 8.492188 -15.753906 11.40625 -15.257812 15.625 -16 C 19.71875 -16.613281 24.742188 -18.347656 30.703125 -21.203125 C 35.410156 -23.441406 39.5625 -25.800781 43.15625 -28.28125 C 46.632812 -30.757812 50.171875 -33.671875 53.765625 -37.015625 C 55.378906 -38.628906 56.867188 -40.054688 58.234375 -41.296875 C 59.722656 -42.535156 60.648438 -43.21875 61.015625 -43.34375 C 62.015625 -43.71875 63.191406 -43.59375 64.546875 -42.96875 C 65.910156 -42.226562 66.78125 -41.238281 67.15625 -40 C 67.40625 -39.5 67.53125 -38.941406 67.53125 -38.328125 C 67.53125 -37.328125 67.28125 -36.394531 66.78125 -35.53125 C 65.914062 -34.039062 63.992188 -31.804688 61.015625 -28.828125 C 55.316406 -23.003906 48.5 -17.921875 40.5625 -13.578125 C 32.625 -9.234375 25.179688 -6.441406 18.234375 -5.203125 C 15.503906 -4.710938 13.519531 -4.46875 12.28125 -4.46875 L 12.09375 -4.46875 C 10.851562 -4.46875 9.238281 -4.648438 7.25 -5.015625 Z M 7.25 -5.015625 "/></g></g><g style="fill:#545454;fill-opacity:0.2706;"><g transform="translate(271.733438, 332.751329)"><path style="stroke:none" d="M 11.15625 -4.46875 C 10.164062 -4.71875 9.238281 -5.148438 8.375 -5.765625 C 7.382812 -6.265625 6.265625 -7.195312 5.015625 -8.5625 C 2.660156 -10.789062 1.113281 -13.207031 0.375 -15.8125 C -0.25 -18.289062 -0.5625 -22.445312 -0.5625 -28.28125 L -0.5625 -42.96875 C -0.4375 -44.957031 0.179688 -46.320312 1.296875 -47.0625 C 2.535156 -47.8125 3.773438 -48.125 5.015625 -48 C 6.503906 -47.875 7.867188 -47.378906 9.109375 -46.515625 C 10.234375 -45.515625 10.671875 -44.394531 10.421875 -43.15625 L 10.421875 -34.78125 C 10.296875 -31.3125 10.296875 -27.90625 10.421875 -24.5625 C 10.671875 -21.332031 11.039062 -19.160156 11.53125 -18.046875 C 12.15625 -16.804688 12.648438 -16.0625 13.015625 -15.8125 C 13.515625 -15.5625 14.507812 -15.375 16 -15.25 C 19.226562 -15.125 23.070312 -16.613281 27.53125 -19.71875 C 32 -22.945312 36.21875 -27.164062 40.1875 -32.375 C 41.550781 -34.101562 42.789062 -35.585938 43.90625 -36.828125 C 45.144531 -38.078125 45.953125 -38.820312 46.328125 -39.0625 C 48.054688 -39.6875 49.664062 -39.441406 51.15625 -38.328125 C 52.644531 -37.328125 53.390625 -35.898438 53.390625 -34.046875 C 53.390625 -33.179688 53.140625 -32.25 52.640625 -31.25 C 52.273438 -30.257812 51.535156 -29.019531 50.421875 -27.53125 C 46.078125 -21.457031 41.175781 -16.3125 35.71875 -12.09375 C 30.382812 -8 25.238281 -5.457031 20.28125 -4.46875 C 18.289062 -3.96875 16.800781 -3.71875 15.8125 -3.71875 C 14.695312 -3.84375 13.144531 -4.09375 11.15625 -4.46875 Z M 2.984375 -58.234375 C 1.734375 -58.722656 0.863281 -59.585938 0.375 -60.828125 C -0.25 -62.066406 -0.5625 -63.867188 -0.5625 -66.234375 C -0.5625 -68.460938 -0.3125 -70.257812 0.1875 -71.625 C 0.6875 -72.988281 1.554688 -74.226562 2.796875 -75.34375 C 3.910156 -76.332031 4.960938 -76.953125 5.953125 -77.203125 L 7.0625 -77.203125 C 7.8125 -77.203125 8.617188 -77.078125 9.484375 -76.828125 C 11.597656 -76.085938 13.085938 -74.601562 13.953125 -72.375 C 14.816406 -70.132812 14.878906 -67.46875 14.140625 -64.375 C 13.640625 -62.007812 12.832031 -60.269531 11.71875 -59.15625 C 10.726562 -58.164062 9.238281 -57.671875 7.25 -57.671875 C 6.382812 -57.671875 5.582031 -57.734375 4.84375 -57.859375 C 3.96875 -57.984375 3.347656 -58.109375 2.984375 -58.234375 Z M 2.984375 -58.234375 "/></g></g><g style="fill:#545454;fill-opacity:0.2706;"><g transform="translate(311.589712, 332.751329)"><path style="stroke:none" d="M 14.140625 -71.4375 C 15.503906 -70.445312 16.25 -69.144531 16.375 -67.53125 C 16.375 -65.789062 15.628906 -61.945312 14.140625 -56 C 13.515625 -52.894531 12.894531 -50.101562 12.28125 -47.625 C 11.78125 -45.144531 11.46875 -43.71875 11.34375 -43.34375 C 11.21875 -42.96875 11.21875 -42.597656 11.34375 -42.234375 C 11.34375 -41.859375 11.40625 -41.609375 11.53125 -41.484375 C 11.53125 -41.359375 12.148438 -41.851562 13.390625 -42.96875 C 14.628906 -44.09375 16.054688 -45.519531 17.671875 -47.25 C 25.234375 -55.1875 32.675781 -60.210938 40 -62.328125 C 47.3125 -64.554688 53.140625 -63.5 57.484375 -59.15625 C 61.328125 -55.3125 62.753906 -49.609375 61.765625 -42.046875 C 60.648438 -34.484375 57.425781 -27.472656 52.09375 -21.015625 C 51.21875 -19.898438 50.472656 -18.972656 49.859375 -18.234375 C 49.234375 -17.359375 48.984375 -16.863281 49.109375 -16.75 C 49.359375 -16.375 50.351562 -16.492188 52.09375 -17.109375 C 53.820312 -17.609375 55.804688 -18.351562 58.046875 -19.34375 C 62.878906 -21.457031 67.34375 -24.375 71.4375 -28.09375 C 75.65625 -31.8125 79.3125 -36.023438 82.40625 -40.734375 C 83.53125 -42.222656 85.394531 -42.222656 88 -40.734375 C 89.851562 -39.617188 90.78125 -38.195312 90.78125 -36.46875 C 90.78125 -35.71875 90.65625 -34.972656 90.40625 -34.234375 C 89.789062 -32.867188 88.863281 -31.253906 87.625 -29.390625 C 86.382812 -27.660156 85.082031 -26.050781 83.71875 -24.5625 C 76.644531 -17.238281 68.953125 -11.90625 60.640625 -8.5625 C 52.335938 -5.082031 42.789062 -3.34375 32 -3.34375 C 28.53125 -3.34375 24.6875 -3.53125 20.46875 -3.90625 C 16.25 -4.15625 12.710938 -4.523438 9.859375 -5.015625 C 8.742188 -5.265625 8 -5.328125 7.625 -5.203125 C 7.25 -5.078125 7.003906 -4.769531 6.890625 -4.28125 C 6.015625 10.851562 7.191406 24.617188 10.421875 37.015625 C 13.640625 49.421875 16.367188 59.40625 18.609375 66.96875 C 20.097656 71.1875 19.164062 73.671875 15.8125 74.421875 C 15.070312 74.660156 14.328125 74.78125 13.578125 74.78125 C 11.472656 74.78125 9.863281 73.851562 8.75 72 C 4.15625 60.21875 0.492188 46.882812 -2.234375 32 C -3.722656 24.0625 -4.46875 14.945312 -4.46875 4.65625 C -4.46875 -4.28125 -3.910156 -14.082031 -2.796875 -24.75 C -2.421875 -27.226562 -1.984375 -30.078125 -1.484375 -33.296875 C -0.992188 -36.398438 -0.4375 -39.5625 0.1875 -42.78125 C 1.300781 -48.863281 2.476562 -54.507812 3.71875 -59.71875 C 4.832031 -64.925781 5.703125 -68.148438 6.328125 -69.390625 C 6.816406 -70.253906 7.5 -71 8.375 -71.625 C 9.113281 -72.125 9.921875 -72.375 10.796875 -72.375 L 11.15625 -72.375 C 11.53125 -72.375 11.96875 -72.3125 12.46875 -72.1875 C 13.082031 -72.0625 13.640625 -71.8125 14.140625 -71.4375 Z M 45.390625 -52.46875 C 42.171875 -51.96875 38.328125 -50.164062 33.859375 -47.0625 C 29.515625 -43.84375 25.546875 -40 21.953125 -35.53125 C 19.597656 -32.675781 17.179688 -28.957031 14.703125 -24.375 C 12.097656 -19.78125 11.039062 -17.238281 11.53125 -16.75 C 12.40625 -16 14.578125 -15.625 18.046875 -15.625 C 21.515625 -15.625 24.550781 -16 27.15625 -16.75 C 32.738281 -18.476562 37.703125 -21.765625 42.046875 -26.609375 C 46.503906 -31.566406 49.359375 -36.835938 50.609375 -42.421875 C 51.347656 -45.640625 51.347656 -48.117188 50.609375 -49.859375 C 49.859375 -51.597656 48.429688 -52.46875 46.328125 -52.46875 Z M 45.390625 -52.46875 "/></g></g><g style="fill:#545454;fill-opacity:0.2706;"><g transform="translate(387.534383, 332.751329)"><path style="stroke:none" d="M 36.09375 -52.828125 C 36.832031 -51.347656 37.140625 -49.425781 37.015625 -47.0625 C 36.890625 -44.582031 36.457031 -42.351562 35.71875 -40.375 C 34.226562 -37.144531 31.5625 -34.101562 27.71875 -31.25 C 23.875 -28.519531 19.65625 -26.597656 15.0625 -25.484375 C 11.96875 -24.867188 10.234375 -24.4375 9.859375 -24.1875 C 9.484375 -23.9375 9.421875 -23.128906 9.671875 -21.765625 C 10.535156 -17.546875 12.582031 -14.382812 15.8125 -12.28125 C 19.039062 -10.050781 22.820312 -9.367188 27.15625 -10.234375 C 32.988281 -11.222656 38.941406 -14.257812 45.015625 -19.34375 C 51.097656 -24.3125 56.929688 -30.882812 62.515625 -39.0625 C 62.515625 -39.1875 62.570312 -39.3125 62.6875 -39.4375 C 62.6875 -39.5625 62.75 -39.6875 62.875 -39.8125 C 63.75 -41.175781 65.363281 -41.734375 67.71875 -41.484375 C 69.945312 -41.234375 71.5 -40.242188 72.375 -38.515625 C 72.613281 -38.015625 72.734375 -37.332031 72.734375 -36.46875 L 72.734375 -36.09375 C 72.609375 -34.976562 72.175781 -33.800781 71.4375 -32.5625 C 66.101562 -24.5 60.210938 -17.675781 53.765625 -12.09375 C 47.316406 -6.632812 40.804688 -2.851562 34.234375 -0.75 C 31.878906 0.125 29.085938 0.6875 25.859375 0.9375 C 24.617188 1.050781 23.441406 1.109375 22.328125 1.109375 C 20.585938 1.109375 19.097656 0.925781 17.859375 0.5625 C 11.035156 -0.800781 5.828125 -4.585938 2.234375 -10.796875 C -0.492188 -15.503906 -1.859375 -20.835938 -1.859375 -26.796875 C -1.859375 -28.648438 -1.734375 -30.570312 -1.484375 -32.5625 C -0.367188 -40.738281 2.476562 -47.492188 7.0625 -52.828125 C 11.78125 -58.035156 17.113281 -60.640625 23.0625 -60.640625 C 25.789062 -60.640625 28.335938 -59.898438 30.703125 -58.421875 C 33.054688 -57.054688 34.851562 -55.191406 36.09375 -52.828125 Z M 10.96875 -37.765625 C 10.851562 -37.140625 10.851562 -36.769531 10.96875 -36.65625 C 11.09375 -36.53125 11.59375 -36.46875 12.46875 -36.46875 C 12.957031 -36.46875 13.765625 -36.648438 14.890625 -37.015625 C 16.003906 -37.265625 17.054688 -37.703125 18.046875 -38.328125 C 21.390625 -39.816406 23.742188 -41.738281 25.109375 -44.09375 C 26.597656 -46.570312 26.476562 -48.304688 24.75 -49.296875 L 23.625 -49.671875 L 22.515625 -49.671875 C 20.523438 -49.546875 18.351562 -48.304688 16 -45.953125 C 13.644531 -43.722656 11.96875 -40.992188 10.96875 -37.765625 Z M 10.96875 -37.765625 "/></g></g><g style="fill:#545454;fill-opacity:0.2706;"><g transform="translate(444.318721, 332.751329)"><path style="stroke:none" d=""/></g></g><g style="fill:#545454;fill-opacity:0.2706;"><g transform="translate(489.755694, 332.751329)"><path style="stroke:none" d="M 160.171875 32.375 C 154.835938 28.40625 150.5 23.253906 147.15625 16.921875 C 143.925781 10.472656 141.566406 2.535156 140.078125 -6.890625 C 139.835938 -8.617188 139.59375 -11.53125 139.34375 -15.625 C 138.96875 -19.59375 138.78125 -23.625 138.78125 -27.71875 C 138.40625 -38.882812 138.65625 -49.425781 139.53125 -59.34375 C 140.394531 -69.394531 141.941406 -80.429688 144.171875 -92.453125 C 144.796875 -95.429688 145.234375 -97.914062 145.484375 -99.90625 C 145.734375 -101.882812 145.796875 -103 145.671875 -103.25 C 145.421875 -103.375 144.613281 -102.753906 143.25 -101.390625 C 141.882812 -100.023438 140.269531 -98.226562 138.40625 -96 C 130.84375 -87.1875 124.023438 -78.503906 117.953125 -69.953125 C 111.742188 -61.390625 104.859375 -51.09375 97.296875 -39.0625 C 89.734375 -27.03125 84.335938 -19.46875 81.109375 -16.375 C 78.003906 -13.269531 74.84375 -12.523438 71.625 -14.140625 C 68.15625 -15.753906 66.234375 -20.40625 65.859375 -28.09375 C 65.484375 -35.90625 66.535156 -49.300781 69.015625 -68.28125 C 69.765625 -74.476562 70.320312 -79.5 70.6875 -83.34375 C 70.9375 -87.0625 71.0625 -91.21875 71.0625 -95.8125 C 71.0625 -101.269531 71 -104.617188 70.875 -105.859375 C 70.75 -107.222656 70.378906 -108.210938 69.765625 -108.828125 C 69.265625 -109.328125 68.769531 -109.640625 68.28125 -109.765625 C 67.90625 -109.765625 67.160156 -109.640625 66.046875 -109.390625 C 63.191406 -108.640625 59.46875 -106.84375 54.875 -104 C 50.289062 -101.144531 45.640625 -97.859375 40.921875 -94.140625 C 38.441406 -92.273438 36.023438 -90.289062 33.671875 -88.1875 C 31.316406 -86.070312 29.207031 -84.023438 27.34375 -82.046875 C 24.613281 -79.316406 22.445312 -76.832031 20.84375 -74.59375 C 19.226562 -72.488281 17.863281 -70.195312 16.75 -67.71875 C 15.132812 -64.125 14.515625 -61.023438 14.890625 -58.421875 C 15.253906 -55.816406 16.738281 -52.898438 19.34375 -49.671875 C 21.332031 -47.191406 22.507812 -45.269531 22.875 -43.90625 C 23.125 -42.664062 22.628906 -41.425781 21.390625 -40.1875 C 20.148438 -38.820312 18.785156 -38.265625 17.296875 -38.515625 C 15.691406 -38.640625 14.082031 -39.503906 12.46875 -41.109375 C 9.738281 -43.585938 7.566406 -46.503906 5.953125 -49.859375 C 4.460938 -53.203125 3.71875 -56.550781 3.71875 -59.90625 C 3.71875 -67.46875 7.253906 -75.59375 14.328125 -84.28125 C 21.390625 -92.957031 31.617188 -101.757812 45.015625 -110.6875 C 53.453125 -116.269531 60.273438 -119.554688 65.484375 -120.546875 C 66.597656 -120.671875 67.648438 -120.734375 68.640625 -120.734375 C 72.367188 -120.734375 75.410156 -119.367188 77.765625 -116.640625 C 79.617188 -114.535156 80.984375 -111.867188 81.859375 -108.640625 C 82.597656 -105.421875 82.78125 -100.585938 82.40625 -94.140625 C 82.289062 -90.785156 81.984375 -86.816406 81.484375 -82.234375 C 81.109375 -77.640625 80.550781 -72.304688 79.8125 -66.234375 C 78.695312 -57.171875 77.890625 -48.984375 77.390625 -41.671875 C 76.890625 -34.359375 76.828125 -30.453125 77.203125 -29.953125 C 77.578125 -29.578125 78.195312 -29.945312 79.0625 -31.0625 C 79.8125 -32.1875 82.414062 -36.28125 86.875 -43.34375 C 93.945312 -54.757812 101.203125 -65.613281 108.640625 -75.90625 C 116.085938 -86.195312 122.847656 -94.941406 128.921875 -102.140625 C 132.148438 -105.984375 135.128906 -109.207031 137.859375 -111.8125 C 140.578125 -114.539062 142.929688 -116.523438 144.921875 -117.765625 C 147.773438 -119.617188 150.441406 -120.113281 152.921875 -119.25 C 155.523438 -118.382812 157.140625 -116.398438 157.765625 -113.296875 C 158.003906 -111.554688 157.941406 -109.015625 157.578125 -105.671875 C 157.203125 -102.316406 156.269531 -96.671875 154.78125 -88.734375 C 153.289062 -80.304688 152.238281 -73.488281 151.625 -68.28125 C 150.875 -63.1875 150.3125 -57.046875 149.9375 -49.859375 C 149.570312 -43.410156 149.453125 -36.34375 149.578125 -28.65625 C 149.703125 -20.957031 150.070312 -14.941406 150.6875 -10.609375 C 151.1875 -6.765625 152.054688 -2.796875 153.296875 1.296875 C 154.410156 5.390625 155.585938 8.738281 156.828125 11.34375 C 157.691406 13.207031 158.679688 14.820312 159.796875 16.1875 C 160.796875 17.550781 162.410156 19.285156 164.640625 21.390625 C 166.992188 23.742188 168.484375 25.359375 169.109375 26.234375 C 169.722656 26.972656 170.03125 27.835938 170.03125 28.828125 C 170.03125 30.316406 169.535156 31.625 168.546875 32.75 C 167.554688 33.738281 166.378906 34.234375 165.015625 34.234375 C 164.390625 34.234375 163.644531 34.046875 162.78125 33.671875 C 161.914062 33.421875 161.046875 32.988281 160.171875 32.375 Z M 160.171875 32.375 "/></g></g><g style="fill:#545454;fill-opacity:0.2706;"><g transform="translate(643.829786, 332.751329)"><path style="stroke:none" d="M 45.953125 -49.671875 C 46.441406 -48.679688 46.9375 -48 47.4375 -47.625 C 47.9375 -47.25 48.742188 -46.9375 49.859375 -46.6875 C 51.222656 -46.570312 52.398438 -45.953125 53.390625 -44.828125 C 54.378906 -43.835938 54.875 -42.722656 54.875 -41.484375 C 54.875 -41.109375 54.753906 -40.425781 54.515625 -39.4375 C 54.140625 -38.320312 53.703125 -37.207031 53.203125 -36.09375 C 51.960938 -33.488281 50.910156 -30.695312 50.046875 -27.71875 C 49.054688 -24.738281 48.5625 -22.628906 48.5625 -21.390625 C 48.5625 -20.648438 48.617188 -20.15625 48.734375 -19.90625 C 48.984375 -19.65625 49.359375 -19.53125 49.859375 -19.53125 C 50.359375 -19.53125 51.910156 -20.585938 54.515625 -22.703125 C 57.234375 -24.679688 60.207031 -27.160156 63.4375 -30.140625 C 65.300781 -31.753906 67.097656 -33.363281 68.828125 -34.96875 L 73.859375 -40 C 75.710938 -41.976562 77.632812 -41.976562 79.625 -40 C 80.863281 -38.757812 81.484375 -37.457031 81.484375 -36.09375 C 81.484375 -35.34375 81.234375 -34.597656 80.734375 -33.859375 C 78.503906 -30.878906 75.09375 -27.21875 70.5 -22.875 C 65.789062 -18.414062 62.566406 -15.378906 60.828125 -13.765625 C 57.984375 -11.285156 55.195312 -9.550781 52.46875 -8.5625 C 50.851562 -7.9375 49.300781 -7.625 47.8125 -7.625 C 46.945312 -7.625 46.078125 -7.75 45.203125 -8 C 43.347656 -8.625 41.613281 -9.988281 40 -12.09375 C 38.507812 -14.320312 37.765625 -16.429688 37.765625 -18.421875 C 37.765625 -18.910156 37.703125 -19.34375 37.578125 -19.71875 C 37.453125 -20.09375 37.328125 -20.34375 37.203125 -20.46875 C 36.953125 -20.59375 36.394531 -20.40625 35.53125 -19.90625 C 34.664062 -19.53125 33.675781 -18.972656 32.5625 -18.234375 C 22.882812 -11.785156 14.382812 -9.117188 7.0625 -10.234375 C -0.125 -11.472656 -3.71875 -16.125 -3.71875 -24.1875 C -3.71875 -27.164062 -3.222656 -30.140625 -2.234375 -33.109375 C -1.242188 -36.085938 0.117188 -38.941406 1.859375 -41.671875 C 5.085938 -46.753906 9.242188 -51.035156 14.328125 -54.515625 C 19.410156 -57.984375 24.554688 -59.71875 29.765625 -59.71875 C 33.109375 -59.71875 36.269531 -58.847656 39.25 -57.109375 C 42.101562 -55.253906 44.335938 -52.773438 45.953125 -49.671875 Z M 28.65625 -48.734375 C 26.414062 -48.492188 24.179688 -47.691406 21.953125 -46.328125 C 19.722656 -44.960938 17.550781 -43.160156 15.4375 -40.921875 C 12.34375 -37.578125 9.988281 -33.921875 8.375 -29.953125 C 6.757812 -25.859375 6.570312 -23.128906 7.8125 -21.765625 C 8.4375 -20.898438 9.863281 -20.648438 12.09375 -21.015625 C 14.320312 -21.390625 16.800781 -22.257812 19.53125 -23.625 C 22.507812 -24.988281 25.363281 -26.601562 28.09375 -28.46875 C 30.820312 -30.320312 33.425781 -32.425781 35.90625 -34.78125 C 36.769531 -35.53125 38.070312 -36.710938 39.8125 -38.328125 C 39.3125 -39.191406 38.503906 -40.492188 37.390625 -42.234375 C 35.898438 -44.710938 34.660156 -46.445312 33.671875 -47.4375 C 32.679688 -48.300781 31.441406 -48.734375 29.953125 -48.734375 Z M 28.65625 -48.734375 "/></g></g><g style="fill:#545454;fill-opacity:0.2706;"><g transform="translate(711.403454, 332.751329)"><path style="stroke:none" d="M 12.28125 13.015625 C 10.164062 12.148438 7.929688 10.351562 5.578125 7.625 C 3.222656 4.769531 1.675781 2.101562 0.9375 -0.375 C -0.925781 -6.445312 -1.550781 -14.507812 -0.9375 -24.5625 C -0.3125 -34.476562 1.613281 -47.4375 4.84375 -63.4375 C 5.457031 -66.289062 6.015625 -68.894531 6.515625 -71.25 C 6.878906 -73.476562 7.0625 -74.78125 7.0625 -75.15625 C 7.1875 -75.53125 6.878906 -75.84375 6.140625 -76.09375 C 5.515625 -76.332031 4.210938 -76.578125 2.234375 -76.828125 C -0.742188 -77.203125 -3.410156 -77.882812 -5.765625 -78.875 C -8.242188 -79.988281 -10.476562 -81.351562 -12.46875 -82.96875 C -13.957031 -84.332031 -15.007812 -85.570312 -15.625 -86.6875 C -16 -87.4375 -16.1875 -88.179688 -16.1875 -88.921875 C -16.1875 -89.421875 -16.125 -89.914062 -16 -90.40625 C -15.375 -92.394531 -14.007812 -93.578125 -11.90625 -93.953125 C -9.925781 -94.316406 -8.003906 -93.695312 -6.140625 -92.09375 C -4.523438 -90.726562 -2.847656 -89.734375 -1.109375 -89.109375 C 0.492188 -88.367188 2.476562 -87.9375 4.84375 -87.8125 L 8.1875 -87.8125 C 9.175781 -87.9375 9.796875 -88.0625 10.046875 -88.1875 C 10.171875 -88.425781 10.476562 -89.289062 10.96875 -90.78125 C 11.46875 -92.394531 12.03125 -94.253906 12.65625 -96.359375 C 15.007812 -105.296875 16.804688 -111.5625 18.046875 -115.15625 C 19.285156 -118.75 20.398438 -120.984375 21.390625 -121.859375 C 22.628906 -122.722656 23.75 -123.21875 24.75 -123.34375 C 24.863281 -123.34375 24.984375 -123.28125 25.109375 -123.15625 C 26.234375 -123.15625 27.351562 -122.472656 28.46875 -121.109375 C 29.582031 -119.992188 30.015625 -118.753906 29.765625 -117.390625 C 29.640625 -116.023438 28.398438 -111.3125 26.046875 -103.25 C 25.054688 -99.78125 24.3125 -96.863281 23.8125 -94.5 C 23.1875 -92.269531 22.9375 -91.03125 23.0625 -90.78125 C 23.3125 -90.65625 23.992188 -90.59375 25.109375 -90.59375 C 26.347656 -90.71875 27.710938 -90.90625 29.203125 -91.15625 C 34.285156 -91.90625 39.4375 -92.28125 44.65625 -92.28125 C 49.863281 -92.15625 54.140625 -91.65625 57.484375 -90.78125 C 59.710938 -90.164062 60.707031 -88.054688 60.46875 -84.453125 C 60.21875 -80.859375 58.539062 -79.375 55.4375 -80 C 51.71875 -80.738281 47.441406 -81.109375 42.609375 -81.109375 C 37.765625 -81.109375 32.925781 -80.675781 28.09375 -79.8125 C 25.863281 -79.4375 23.941406 -79.0625 22.328125 -78.6875 C 20.710938 -78.320312 19.84375 -78.078125 19.71875 -77.953125 C 19.34375 -77.703125 18.472656 -74.476562 17.109375 -68.28125 C 15.742188 -62.195312 14.441406 -55.625 13.203125 -48.5625 C 12.335938 -44.46875 11.71875 -40.617188 11.34375 -37.015625 C 10.976562 -33.421875 10.609375 -29.207031 10.234375 -24.375 C 9.859375 -18.414062 9.734375 -14.507812 9.859375 -12.65625 C 9.859375 -10.789062 10.109375 -8.804688 10.609375 -6.703125 C 11.722656 -2.609375 13.332031 0.242188 15.4375 1.859375 C 17.550781 3.597656 20.28125 4.09375 23.625 3.34375 C 28.707031 2.351562 34.847656 -1.675781 42.046875 -8.75 C 49.234375 -15.6875 56.054688 -24.304688 62.515625 -34.609375 C 63.628906 -36.335938 64.742188 -37.882812 65.859375 -39.25 C 66.972656 -40.738281 67.71875 -41.609375 68.09375 -41.859375 C 69.820312 -42.847656 71.554688 -42.847656 73.296875 -41.859375 C 75.035156 -40.867188 75.90625 -39.441406 75.90625 -37.578125 L 75.90625 -37.203125 C 75.78125 -35.347656 74.226562 -32.0625 71.25 -27.34375 C 68.144531 -22.632812 64.550781 -17.800781 60.46875 -12.84375 C 58.351562 -10.113281 56.117188 -7.503906 53.765625 -5.015625 C 51.535156 -2.535156 49.425781 -0.367188 47.4375 1.484375 C 44.21875 4.335938 41.304688 6.632812 38.703125 8.375 C 36.085938 10.101562 33.359375 11.53125 30.515625 12.65625 C 28.523438 13.519531 26.910156 14.015625 25.671875 14.140625 C 24.804688 14.390625 23.566406 14.515625 21.953125 14.515625 C 21.453125 14.515625 20.957031 14.453125 20.46875 14.328125 C 18.601562 14.328125 16.988281 14.203125 15.625 13.953125 C 14.382812 13.828125 13.269531 13.515625 12.28125 13.015625 Z M 12.28125 13.015625 "/></g></g><g style="fill:#545454;fill-opacity:0.2706;"><g transform="translate(772.094253, 332.751329)"><path style="stroke:none" d="M 11.15625 -4.46875 C 10.164062 -4.71875 9.238281 -5.148438 8.375 -5.765625 C 7.382812 -6.265625 6.265625 -7.195312 5.015625 -8.5625 C 2.660156 -10.789062 1.113281 -13.207031 0.375 -15.8125 C -0.25 -18.289062 -0.5625 -22.445312 -0.5625 -28.28125 L -0.5625 -42.96875 C -0.4375 -44.957031 0.179688 -46.320312 1.296875 -47.0625 C 2.535156 -47.8125 3.773438 -48.125 5.015625 -48 C 6.503906 -47.875 7.867188 -47.378906 9.109375 -46.515625 C 10.234375 -45.515625 10.671875 -44.394531 10.421875 -43.15625 L 10.421875 -34.78125 C 10.296875 -31.3125 10.296875 -27.90625 10.421875 -24.5625 C 10.671875 -21.332031 11.039062 -19.160156 11.53125 -18.046875 C 12.15625 -16.804688 12.648438 -16.0625 13.015625 -15.8125 C 13.515625 -15.5625 14.507812 -15.375 16 -15.25 C 19.226562 -15.125 23.070312 -16.613281 27.53125 -19.71875 C 32 -22.945312 36.21875 -27.164062 40.1875 -32.375 C 41.550781 -34.101562 42.789062 -35.585938 43.90625 -36.828125 C 45.144531 -38.078125 45.953125 -38.820312 46.328125 -39.0625 C 48.054688 -39.6875 49.664062 -39.441406 51.15625 -38.328125 C 52.644531 -37.328125 53.390625 -35.898438 53.390625 -34.046875 C 53.390625 -33.179688 53.140625 -32.25 52.640625 -31.25 C 52.273438 -30.257812 51.535156 -29.019531 50.421875 -27.53125 C 46.078125 -21.457031 41.175781 -16.3125 35.71875 -12.09375 C 30.382812 -8 25.238281 -5.457031 20.28125 -4.46875 C 18.289062 -3.96875 16.800781 -3.71875 15.8125 -3.71875 C 14.695312 -3.84375 13.144531 -4.09375 11.15625 -4.46875 Z M 2.984375 -58.234375 C 1.734375 -58.722656 0.863281 -59.585938 0.375 -60.828125 C -0.25 -62.066406 -0.5625 -63.867188 -0.5625 -66.234375 C -0.5625 -68.460938 -0.3125 -70.257812 0.1875 -71.625 C 0.6875 -72.988281 1.554688 -74.226562 2.796875 -75.34375 C 3.910156 -76.332031 4.960938 -76.953125 5.953125 -77.203125 L 7.0625 -77.203125 C 7.8125 -77.203125 8.617188 -77.078125 9.484375 -76.828125 C 11.597656 -76.085938 13.085938 -74.601562 13.953125 -72.375 C 14.816406 -70.132812 14.878906 -67.46875 14.140625 -64.375 C 13.640625 -62.007812 12.832031 -60.269531 11.71875 -59.15625 C 10.726562 -58.164062 9.238281 -57.671875 7.25 -57.671875 C 6.382812 -57.671875 5.582031 -57.734375 4.84375 -57.859375 C 3.96875 -57.984375 3.347656 -58.109375 2.984375 -58.234375 Z M 2.984375 -58.234375 "/></g></g><g style="fill:#545454;fill-opacity:0.2706;"><g transform="translate(811.950573, 332.751329)"><path style="stroke:none" d="M 24.1875 -53.203125 C 30.007812 -48.984375 35.28125 -46.007812 40 -44.28125 C 44.832031 -42.539062 50.164062 -41.609375 56 -41.484375 L 61.953125 -41.484375 C 63.679688 -41.484375 64.859375 -41.546875 65.484375 -41.671875 C 66.847656 -41.796875 68.148438 -41.300781 69.390625 -40.1875 C 70.628906 -39.070312 71.1875 -37.832031 71.0625 -36.46875 L 71.0625 -36.28125 C 70.9375 -34.039062 70.070312 -32.550781 68.46875 -31.8125 C 66.851562 -30.945312 63.6875 -30.390625 58.96875 -30.140625 C 56.613281 -30.015625 54.503906 -30.015625 52.640625 -30.140625 C 50.910156 -30.265625 49.113281 -30.507812 47.25 -30.875 C 45.757812 -31.125 44.457031 -31.375 43.34375 -31.625 C 42.226562 -31.75 41.609375 -31.75 41.484375 -31.625 C 41.234375 -31.625 41.046875 -31.128906 40.921875 -30.140625 C 40.679688 -29.265625 40.5 -28.207031 40.375 -26.96875 C 39.75 -23 38.132812 -19.34375 35.53125 -16 C 33.050781 -12.644531 29.953125 -10.164062 26.234375 -8.5625 C 24.492188 -7.9375 22.015625 -7.5625 18.796875 -7.4375 L 17.484375 -7.4375 C 14.878906 -7.4375 12.957031 -7.6875 11.71875 -8.1875 C 6.882812 -10.164062 3.226562 -13.328125 0.75 -17.671875 C -1.238281 -21.140625 -2.234375 -24.800781 -2.234375 -28.65625 C -2.234375 -29.769531 -2.109375 -30.945312 -1.859375 -32.1875 C -1.359375 -36.03125 -0.0546875 -39.5625 2.046875 -42.78125 C 4.023438 -46.132812 7.1875 -49.859375 11.53125 -53.953125 C 12.769531 -55.066406 13.765625 -55.875 14.515625 -56.375 C 15.253906 -56.863281 16.054688 -57.109375 16.921875 -57.109375 L 17.109375 -57.109375 C 17.984375 -57.109375 18.914062 -56.738281 19.90625 -56 C 21.019531 -55.375 22.445312 -54.441406 24.1875 -53.203125 Z M 11.15625 -36.65625 C 9.300781 -33.300781 8.5625 -30.015625 8.9375 -26.796875 C 9.425781 -23.691406 10.972656 -21.332031 13.578125 -19.71875 C 14.941406 -18.851562 16.242188 -18.359375 17.484375 -18.234375 C 18.722656 -18.109375 20.085938 -18.296875 21.578125 -18.796875 C 23.804688 -19.535156 25.726562 -21.144531 27.34375 -23.625 C 29.082031 -26.101562 29.828125 -28.582031 29.578125 -31.0625 C 29.453125 -33.425781 28.460938 -35.472656 26.609375 -37.203125 C 24.867188 -38.816406 22.382812 -40.117188 19.15625 -41.109375 C 18.539062 -41.234375 18.046875 -41.296875 17.671875 -41.296875 C 17.171875 -41.421875 16.800781 -41.484375 16.5625 -41.484375 C 15.445312 -41.609375 14.515625 -41.300781 13.765625 -40.5625 C 13.148438 -39.8125 12.28125 -38.507812 11.15625 -36.65625 Z M 11.15625 -36.65625 "/></g></g><g clip-rule="nonzero" clip-path="url(#e52a071677)"><g style="fill:#545454;fill-opacity:0.2706;"><g transform="translate(870.037034, 332.751329)"><path style="stroke:none" d="M 60.640625 -2.796875 C 57.921875 -3.660156 55.628906 -5.582031 53.765625 -8.5625 C 51.898438 -11.65625 49.664062 -17.109375 47.0625 -24.921875 C 45.207031 -30.753906 43.722656 -34.785156 42.609375 -37.015625 C 41.484375 -39.128906 40.425781 -40.125 39.4375 -40 C 37.695312 -39.625 35.40625 -38.007812 32.5625 -35.15625 C 29.582031 -32.1875 25.675781 -27.472656 20.84375 -21.015625 C 18.601562 -18.171875 16.675781 -16.128906 15.0625 -14.890625 C 13.582031 -13.640625 12.097656 -13.015625 10.609375 -13.015625 C 6.878906 -13.015625 4.335938 -14.941406 2.984375 -18.796875 C 1.617188 -22.515625 0.75 -29.769531 0.375 -40.5625 C 0.25 -43.53125 0.125 -47.929688 0 -53.765625 L 1.671875 -55.4375 C 2.785156 -56.550781 4.085938 -57.109375 5.578125 -57.109375 L 5.765625 -57.109375 C 7.128906 -57.109375 8.304688 -56.613281 9.296875 -55.625 C 10.046875 -55 10.484375 -54.003906 10.609375 -52.640625 C 10.847656 -51.398438 11.09375 -47.867188 11.34375 -42.046875 C 11.34375 -38.816406 11.46875 -35.960938 11.71875 -33.484375 C 11.96875 -31.003906 12.15625 -29.640625 12.28125 -29.390625 C 12.40625 -29.265625 12.960938 -29.757812 13.953125 -30.875 C 15.066406 -31.875 16.304688 -33.238281 17.671875 -34.96875 C 22.015625 -40.425781 25.921875 -44.457031 29.390625 -47.0625 C 32.867188 -49.539062 36.21875 -50.90625 39.4375 -51.15625 C 42.289062 -51.40625 44.832031 -50.785156 47.0625 -49.296875 C 49.175781 -47.679688 51.097656 -45.203125 52.828125 -41.859375 C 53.203125 -40.992188 53.882812 -39.378906 54.875 -37.015625 C 55.75 -34.535156 56.554688 -31.992188 57.296875 -29.390625 C 59.035156 -23.804688 60.398438 -19.898438 61.390625 -17.671875 C 62.378906 -15.441406 63.1875 -14.328125 63.8125 -14.328125 C 64.425781 -14.328125 65.851562 -15.9375 68.09375 -19.15625 C 70.445312 -22.257812 73.050781 -26.289062 75.90625 -31.25 C 79 -36.332031 80.921875 -39.375 81.671875 -40.375 C 82.535156 -41.363281 83.585938 -41.984375 84.828125 -42.234375 C 86.191406 -42.484375 87.367188 -42.296875 88.359375 -41.671875 C 89.359375 -41.171875 90.101562 -40.300781 90.59375 -39.0625 C 90.84375 -38.320312 90.96875 -37.578125 90.96875 -36.828125 C 90.96875 -36.210938 90.84375 -35.53125 90.59375 -34.78125 C 90.101562 -33.425781 88.617188 -30.578125 86.140625 -26.234375 C 80.929688 -17.671875 76.835938 -11.71875 73.859375 -8.375 C 70.753906 -5.019531 67.710938 -3.097656 64.734375 -2.609375 L 62.6875 -2.609375 C 61.820312 -2.609375 61.140625 -2.671875 60.640625 -2.796875 Z M 60.640625 -2.796875 "/></g></g></g><g style="fill:#000000;fill-opacity:1;"><g transform="translate(14.743331, 325.27265)"><path style="stroke:none" d="M 146.59375 45.765625 C 145.476562 45.265625 144.488281 44.332031 143.625 42.96875 C 142.875 41.601562 141.816406 39 140.453125 35.15625 C 139.710938 33.050781 138.660156 30.265625 137.296875 26.796875 C 135.804688 23.191406 134.378906 20.023438 133.015625 17.296875 C 128.054688 7.128906 123.15625 -1.488281 118.3125 -8.5625 C 113.476562 -15.5 107.773438 -22.195312 101.203125 -28.65625 C 96.492188 -33.488281 92.09375 -37.457031 88 -40.5625 C 83.90625 -43.65625 78.632812 -47.125 72.1875 -50.96875 C 66.601562 -54.320312 63.191406 -56.304688 61.953125 -56.921875 C 60.710938 -57.671875 59.96875 -57.921875 59.71875 -57.671875 C 59.46875 -57.546875 59.15625 -55.992188 58.78125 -53.015625 C 58.414062 -50.046875 58.109375 -46.757812 57.859375 -43.15625 C 57.609375 -41.175781 57.421875 -39.191406 57.296875 -37.203125 C 57.171875 -35.222656 57.109375 -33.425781 57.109375 -31.8125 C 56.859375 -24.863281 57.046875 -19.222656 57.671875 -14.890625 C 58.410156 -10.671875 59.648438 -7.257812 61.390625 -4.65625 C 62.253906 -3.414062 63.679688 -2.234375 65.671875 -1.109375 C 67.648438 -0.117188 70.003906 0.742188 72.734375 1.484375 C 74.472656 1.984375 75.835938 2.484375 76.828125 2.984375 C 77.828125 3.347656 78.570312 3.84375 79.0625 4.46875 C 80.550781 6.195312 80.925781 8.117188 80.1875 10.234375 C 79.4375 12.335938 77.945312 13.640625 75.71875 14.140625 C 75.21875 14.265625 74.347656 14.265625 73.109375 14.140625 C 71.867188 14.015625 70.628906 13.765625 69.390625 13.390625 C 63.554688 12.023438 58.78125 9.734375 55.0625 6.515625 C 51.46875 3.160156 48.800781 -1.242188 47.0625 -6.703125 C 45.332031 -12.035156 44.46875 -18.546875 44.46875 -26.234375 C 44.34375 -34.046875 45.082031 -43.71875 46.6875 -55.25 C 46.9375 -57.363281 47.375 -60.648438 48 -65.109375 C 47.625 -65.359375 47.003906 -65.796875 46.140625 -66.421875 C 44.273438 -67.660156 41.734375 -70.015625 38.515625 -73.484375 C 35.160156 -76.828125 32.738281 -79.554688 31.25 -81.671875 C 29.394531 -84.398438 28.34375 -86.507812 28.09375 -88 C 27.96875 -89.488281 28.585938 -90.914062 29.953125 -92.28125 C 30.941406 -93.269531 32.054688 -93.890625 33.296875 -94.140625 C 34.660156 -94.378906 35.898438 -94.191406 37.015625 -93.578125 C 37.390625 -93.453125 38.007812 -92.894531 38.875 -91.90625 C 39.625 -90.90625 40.492188 -89.785156 41.484375 -88.546875 C 43.222656 -86.191406 45.019531 -84.023438 46.875 -82.046875 C 48.738281 -80.179688 49.859375 -79.375 50.234375 -79.625 C 50.359375 -79.75 50.851562 -81.859375 51.71875 -85.953125 C 52.582031 -89.921875 53.570312 -94.753906 54.6875 -100.453125 C 55.8125 -106.035156 56.804688 -110.9375 57.671875 -115.15625 C 58.660156 -119.375 59.21875 -121.726562 59.34375 -122.21875 C 59.84375 -123.09375 60.835938 -123.898438 62.328125 -124.640625 C 63.691406 -125.265625 64.929688 -125.453125 66.046875 -125.203125 C 67.160156 -124.953125 68.148438 -124.394531 69.015625 -123.53125 C 69.890625 -122.65625 70.445312 -121.722656 70.6875 -120.734375 C 70.8125 -120.117188 70.503906 -117.640625 69.765625 -113.296875 C 69.015625 -109.078125 67.898438 -103.375 66.421875 -96.1875 C 65.171875 -89.976562 64.113281 -84.519531 63.25 -79.8125 C 62.382812 -75.09375 61.953125 -72.613281 61.953125 -72.375 C 61.953125 -71.75 63.5 -70.753906 66.59375 -69.390625 C 69.695312 -68.023438 73.171875 -66.910156 77.015625 -66.046875 C 80.859375 -65.046875 85.882812 -64.488281 92.09375 -64.375 C 98.164062 -64.375 102.816406 -64.804688 106.046875 -65.671875 C 113.984375 -67.773438 120.554688 -71.679688 125.765625 -77.390625 C 130.972656 -82.972656 134.195312 -89.609375 135.4375 -97.296875 C 136.925781 -106.972656 134.320312 -115.34375 127.625 -122.40625 C 120.800781 -129.476562 110.628906 -134.503906 97.109375 -137.484375 C 95.617188 -137.734375 93.695312 -137.976562 91.34375 -138.21875 C 88.988281 -138.34375 86.445312 -138.46875 83.71875 -138.59375 C 78.507812 -138.71875 73.238281 -138.65625 67.90625 -138.40625 C 62.445312 -138.15625 58.289062 -137.722656 55.4375 -137.109375 C 45.519531 -134.878906 37.332031 -131.34375 30.875 -126.5 C 24.300781 -121.664062 19.835938 -115.710938 17.484375 -108.640625 C 16.742188 -106.660156 16.3125 -105.050781 16.1875 -103.8125 C 16.0625 -102.570312 16.0625 -100.648438 16.1875 -98.046875 C 16.1875 -95.804688 16.3125 -94.003906 16.5625 -92.640625 C 16.800781 -91.273438 17.171875 -90.035156 17.671875 -88.921875 C 18.421875 -87.191406 19.785156 -85.207031 21.765625 -82.96875 C 23.753906 -80.738281 25.613281 -79.128906 27.34375 -78.140625 C 29.457031 -76.773438 30.695312 -75.097656 31.0625 -73.109375 C 31.3125 -71.003906 30.507812 -69.207031 28.65625 -67.71875 C 27.289062 -66.476562 25.925781 -65.984375 24.5625 -66.234375 C 23.195312 -66.472656 21.210938 -67.523438 18.609375 -69.390625 C 10.546875 -74.972656 5.644531 -82.660156 3.90625 -92.453125 C 3.53125 -94.816406 3.34375 -97.238281 3.34375 -99.71875 C 3.34375 -106.90625 5.390625 -113.972656 9.484375 -120.921875 C 10.972656 -123.523438 13.207031 -126.441406 16.1875 -129.671875 C 19.164062 -132.890625 21.957031 -135.429688 24.5625 -137.296875 C 28.894531 -140.390625 34.039062 -143.054688 40 -145.296875 C 45.945312 -147.523438 52.085938 -149.132812 58.421875 -150.125 C 59.785156 -150.375 61.519531 -150.5625 63.625 -150.6875 C 65.601562 -150.9375 67.773438 -151.0625 70.140625 -151.0625 C 72.742188 -151.1875 75.347656 -151.25 77.953125 -151.25 L 83.34375 -151.25 C 87.9375 -151.125 91.410156 -150.875 93.765625 -150.5 C 105.796875 -148.757812 116.210938 -145.226562 125.015625 -139.90625 C 133.816406 -134.6875 140.082031 -128.296875 143.8125 -120.734375 C 145.539062 -117.265625 146.71875 -113.914062 147.34375 -110.6875 C 147.957031 -107.34375 148.203125 -103.6875 148.078125 -99.71875 C 147.335938 -87.1875 142.441406 -76.394531 133.390625 -67.34375 C 124.335938 -58.289062 113.359375 -53.269531 100.453125 -52.28125 C 99.210938 -52.15625 98.097656 -52.03125 97.109375 -51.90625 C 96.117188 -51.65625 95.5625 -51.46875 95.4375 -51.34375 C 95.4375 -51.21875 95.6875 -50.910156 96.1875 -50.421875 C 96.675781 -49.796875 97.359375 -49.175781 98.234375 -48.5625 C 104.054688 -43.84375 109.445312 -38.753906 114.40625 -33.296875 C 119.375 -27.835938 124.023438 -21.945312 128.359375 -15.625 C 133.203125 -8.550781 137.671875 -0.925781 141.765625 7.25 C 145.972656 15.4375 149.441406 23.191406 152.171875 30.515625 C 153.785156 35.097656 154.59375 38.382812 154.59375 40.375 L 154.59375 40.734375 C 154.46875 42.847656 153.414062 44.398438 151.4375 45.390625 C 150.4375 45.890625 149.628906 46.203125 149.015625 46.328125 L 148.828125 46.328125 C 148.203125 46.328125 147.457031 46.140625 146.59375 45.765625 Z M 146.59375 45.765625 "/></g></g><g style="fill:#000000;fill-opacity:1;"><g transform="translate(157.470079, 325.27265)"><path style="stroke:none" d="M 36.09375 -52.828125 C 36.832031 -51.347656 37.140625 -49.425781 37.015625 -47.0625 C 36.890625 -44.582031 36.457031 -42.351562 35.71875 -40.375 C 34.226562 -37.144531 31.5625 -34.101562 27.71875 -31.25 C 23.875 -28.519531 19.65625 -26.597656 15.0625 -25.484375 C 11.96875 -24.867188 10.234375 -24.4375 9.859375 -24.1875 C 9.484375 -23.9375 9.421875 -23.128906 9.671875 -21.765625 C 10.535156 -17.546875 12.582031 -14.382812 15.8125 -12.28125 C 19.039062 -10.050781 22.820312 -9.367188 27.15625 -10.234375 C 32.988281 -11.222656 38.941406 -14.257812 45.015625 -19.34375 C 51.097656 -24.3125 56.929688 -30.882812 62.515625 -39.0625 C 62.515625 -39.1875 62.570312 -39.3125 62.6875 -39.4375 C 62.6875 -39.5625 62.75 -39.6875 62.875 -39.8125 C 63.75 -41.175781 65.363281 -41.734375 67.71875 -41.484375 C 69.945312 -41.234375 71.5 -40.242188 72.375 -38.515625 C 72.613281 -38.015625 72.734375 -37.332031 72.734375 -36.46875 L 72.734375 -36.09375 C 72.609375 -34.976562 72.175781 -33.800781 71.4375 -32.5625 C 66.101562 -24.5 60.210938 -17.675781 53.765625 -12.09375 C 47.316406 -6.632812 40.804688 -2.851562 34.234375 -0.75 C 31.878906 0.125 29.085938 0.6875 25.859375 0.9375 C 24.617188 1.050781 23.441406 1.109375 22.328125 1.109375 C 20.585938 1.109375 19.097656 0.925781 17.859375 0.5625 C 11.035156 -0.800781 5.828125 -4.585938 2.234375 -10.796875 C -0.492188 -15.503906 -1.859375 -20.835938 -1.859375 -26.796875 C -1.859375 -28.648438 -1.734375 -30.570312 -1.484375 -32.5625 C -0.367188 -40.738281 2.476562 -47.492188 7.0625 -52.828125 C 11.78125 -58.035156 17.113281 -60.640625 23.0625 -60.640625 C 25.789062 -60.640625 28.335938 -59.898438 30.703125 -58.421875 C 33.054688 -57.054688 34.851562 -55.191406 36.09375 -52.828125 Z M 10.96875 -37.765625 C 10.851562 -37.140625 10.851562 -36.769531 10.96875 -36.65625 C 11.09375 -36.53125 11.59375 -36.46875 12.46875 -36.46875 C 12.957031 -36.46875 13.765625 -36.648438 14.890625 -37.015625 C 16.003906 -37.265625 17.054688 -37.703125 18.046875 -38.328125 C 21.390625 -39.816406 23.742188 -41.738281 25.109375 -44.09375 C 26.597656 -46.570312 26.476562 -48.304688 24.75 -49.296875 L 23.625 -49.671875 L 22.515625 -49.671875 C 20.523438 -49.546875 18.351562 -48.304688 16 -45.953125 C 13.644531 -43.722656 11.96875 -40.992188 10.96875 -37.765625 Z M 10.96875 -37.765625 "/></g></g><g style="fill:#000000;fill-opacity:1;"><g transform="translate(214.254417, 325.27265)"><path style="stroke:none" d="M 7.25 -5.015625 C 5.144531 -5.390625 3.160156 -6.257812 1.296875 -7.625 C -0.554688 -8.863281 -2.039062 -10.351562 -3.15625 -12.09375 C -4.03125 -13.457031 -4.59375 -14.632812 -4.84375 -15.625 C -5.082031 -16.613281 -5.265625 -18.226562 -5.390625 -20.46875 L -5.390625 -22.875 C -5.390625 -24 -5.328125 -24.929688 -5.203125 -25.671875 C -5.078125 -26.910156 -4.644531 -28.585938 -3.90625 -30.703125 C -2.914062 -33.671875 -1.675781 -36.335938 -0.1875 -38.703125 C 1.300781 -41.054688 3.035156 -43.160156 5.015625 -45.015625 C 7.253906 -47.003906 9.300781 -48.429688 11.15625 -49.296875 C 13.019531 -50.171875 15.128906 -50.609375 17.484375 -50.609375 C 20.460938 -50.609375 22.941406 -49.984375 24.921875 -48.734375 C 26.910156 -47.492188 28.648438 -45.453125 30.140625 -42.609375 C 31.878906 -39.253906 32.4375 -36.460938 31.8125 -34.234375 C 31.3125 -32.117188 29.695312 -31.0625 26.96875 -31.0625 C 25.726562 -31.0625 24.613281 -31.5 23.625 -32.375 C 22.757812 -33.238281 21.953125 -34.539062 21.203125 -36.28125 C 20.460938 -37.894531 19.660156 -38.945312 18.796875 -39.4375 C 17.796875 -39.8125 16.613281 -39.6875 15.25 -39.0625 C 12.894531 -37.945312 10.789062 -35.78125 8.9375 -32.5625 C 6.945312 -29.332031 5.828125 -26.101562 5.578125 -22.875 C 5.453125 -21.144531 5.453125 -19.96875 5.578125 -19.34375 C 5.703125 -18.851562 6.140625 -18.234375 6.890625 -17.484375 C 8.492188 -15.753906 11.40625 -15.257812 15.625 -16 C 19.71875 -16.613281 24.742188 -18.347656 30.703125 -21.203125 C 35.410156 -23.441406 39.5625 -25.800781 43.15625 -28.28125 C 46.632812 -30.757812 50.171875 -33.671875 53.765625 -37.015625 C 55.378906 -38.628906 56.867188 -40.054688 58.234375 -41.296875 C 59.722656 -42.535156 60.648438 -43.21875 61.015625 -43.34375 C 62.015625 -43.71875 63.191406 -43.59375 64.546875 -42.96875 C 65.910156 -42.226562 66.78125 -41.238281 67.15625 -40 C 67.40625 -39.5 67.53125 -38.941406 67.53125 -38.328125 C 67.53125 -37.328125 67.28125 -36.394531 66.78125 -35.53125 C 65.914062 -34.039062 63.992188 -31.804688 61.015625 -28.828125 C 55.316406 -23.003906 48.5 -17.921875 40.5625 -13.578125 C 32.625 -9.234375 25.179688 -6.441406 18.234375 -5.203125 C 15.503906 -4.710938 13.519531 -4.46875 12.28125 -4.46875 L 12.09375 -4.46875 C 10.851562 -4.46875 9.238281 -4.648438 7.25 -5.015625 Z M 7.25 -5.015625 "/></g></g><g style="fill:#000000;fill-opacity:1;"><g transform="translate(265.458078, 325.27265)"><path style="stroke:none" d="M 11.15625 -4.46875 C 10.164062 -4.71875 9.238281 -5.148438 8.375 -5.765625 C 7.382812 -6.265625 6.265625 -7.195312 5.015625 -8.5625 C 2.660156 -10.789062 1.113281 -13.207031 0.375 -15.8125 C -0.25 -18.289062 -0.5625 -22.445312 -0.5625 -28.28125 L -0.5625 -42.96875 C -0.4375 -44.957031 0.179688 -46.320312 1.296875 -47.0625 C 2.535156 -47.8125 3.773438 -48.125 5.015625 -48 C 6.503906 -47.875 7.867188 -47.378906 9.109375 -46.515625 C 10.234375 -45.515625 10.671875 -44.394531 10.421875 -43.15625 L 10.421875 -34.78125 C 10.296875 -31.3125 10.296875 -27.90625 10.421875 -24.5625 C 10.671875 -21.332031 11.039062 -19.160156 11.53125 -18.046875 C 12.15625 -16.804688 12.648438 -16.0625 13.015625 -15.8125 C 13.515625 -15.5625 14.507812 -15.375 16 -15.25 C 19.226562 -15.125 23.070312 -16.613281 27.53125 -19.71875 C 32 -22.945312 36.21875 -27.164062 40.1875 -32.375 C 41.550781 -34.101562 42.789062 -35.585938 43.90625 -36.828125 C 45.144531 -38.078125 45.953125 -38.820312 46.328125 -39.0625 C 48.054688 -39.6875 49.664062 -39.441406 51.15625 -38.328125 C 52.644531 -37.328125 53.390625 -35.898438 53.390625 -34.046875 C 53.390625 -33.179688 53.140625 -32.25 52.640625 -31.25 C 52.273438 -30.257812 51.535156 -29.019531 50.421875 -27.53125 C 46.078125 -21.457031 41.175781 -16.3125 35.71875 -12.09375 C 30.382812 -8 25.238281 -5.457031 20.28125 -4.46875 C 18.289062 -3.96875 16.800781 -3.71875 15.8125 -3.71875 C 14.695312 -3.84375 13.144531 -4.09375 11.15625 -4.46875 Z M 2.984375 -58.234375 C 1.734375 -58.722656 0.863281 -59.585938 0.375 -60.828125 C -0.25 -62.066406 -0.5625 -63.867188 -0.5625 -66.234375 C -0.5625 -68.460938 -0.3125 -70.257812 0.1875 -71.625 C 0.6875 -72.988281 1.554688 -74.226562 2.796875 -75.34375 C 3.910156 -76.332031 4.960938 -76.953125 5.953125 -77.203125 L 7.0625 -77.203125 C 7.8125 -77.203125 8.617188 -77.078125 9.484375 -76.828125 C 11.597656 -76.085938 13.085938 -74.601562 13.953125 -72.375 C 14.816406 -70.132812 14.878906 -67.46875 14.140625 -64.375 C 13.640625 -62.007812 12.832031 -60.269531 11.71875 -59.15625 C 10.726562 -58.164062 9.238281 -57.671875 7.25 -57.671875 C 6.382812 -57.671875 5.582031 -57.734375 4.84375 -57.859375 C 3.96875 -57.984375 3.347656 -58.109375 2.984375 -58.234375 Z M 2.984375 -58.234375 "/></g></g><g style="fill:#000000;fill-opacity:1;"><g transform="translate(305.314352, 325.27265)"><path style="stroke:none" d="M 14.140625 -71.4375 C 15.503906 -70.445312 16.25 -69.144531 16.375 -67.53125 C 16.375 -65.789062 15.628906 -61.945312 14.140625 -56 C 13.515625 -52.894531 12.894531 -50.101562 12.28125 -47.625 C 11.78125 -45.144531 11.46875 -43.71875 11.34375 -43.34375 C 11.21875 -42.96875 11.21875 -42.597656 11.34375 -42.234375 C 11.34375 -41.859375 11.40625 -41.609375 11.53125 -41.484375 C 11.53125 -41.359375 12.148438 -41.851562 13.390625 -42.96875 C 14.628906 -44.09375 16.054688 -45.519531 17.671875 -47.25 C 25.234375 -55.1875 32.675781 -60.210938 40 -62.328125 C 47.3125 -64.554688 53.140625 -63.5 57.484375 -59.15625 C 61.328125 -55.3125 62.753906 -49.609375 61.765625 -42.046875 C 60.648438 -34.484375 57.425781 -27.472656 52.09375 -21.015625 C 51.21875 -19.898438 50.472656 -18.972656 49.859375 -18.234375 C 49.234375 -17.359375 48.984375 -16.863281 49.109375 -16.75 C 49.359375 -16.375 50.351562 -16.492188 52.09375 -17.109375 C 53.820312 -17.609375 55.804688 -18.351562 58.046875 -19.34375 C 62.878906 -21.457031 67.34375 -24.375 71.4375 -28.09375 C 75.65625 -31.8125 79.3125 -36.023438 82.40625 -40.734375 C 83.53125 -42.222656 85.394531 -42.222656 88 -40.734375 C 89.851562 -39.617188 90.78125 -38.195312 90.78125 -36.46875 C 90.78125 -35.71875 90.65625 -34.972656 90.40625 -34.234375 C 89.789062 -32.867188 88.863281 -31.253906 87.625 -29.390625 C 86.382812 -27.660156 85.082031 -26.050781 83.71875 -24.5625 C 76.644531 -17.238281 68.953125 -11.90625 60.640625 -8.5625 C 52.335938 -5.082031 42.789062 -3.34375 32 -3.34375 C 28.53125 -3.34375 24.6875 -3.53125 20.46875 -3.90625 C 16.25 -4.15625 12.710938 -4.523438 9.859375 -5.015625 C 8.742188 -5.265625 8 -5.328125 7.625 -5.203125 C 7.25 -5.078125 7.003906 -4.769531 6.890625 -4.28125 C 6.015625 10.851562 7.191406 24.617188 10.421875 37.015625 C 13.640625 49.421875 16.367188 59.40625 18.609375 66.96875 C 20.097656 71.1875 19.164062 73.671875 15.8125 74.421875 C 15.070312 74.660156 14.328125 74.78125 13.578125 74.78125 C 11.472656 74.78125 9.863281 73.851562 8.75 72 C 4.15625 60.21875 0.492188 46.882812 -2.234375 32 C -3.722656 24.0625 -4.46875 14.945312 -4.46875 4.65625 C -4.46875 -4.28125 -3.910156 -14.082031 -2.796875 -24.75 C -2.421875 -27.226562 -1.984375 -30.078125 -1.484375 -33.296875 C -0.992188 -36.398438 -0.4375 -39.5625 0.1875 -42.78125 C 1.300781 -48.863281 2.476562 -54.507812 3.71875 -59.71875 C 4.832031 -64.925781 5.703125 -68.148438 6.328125 -69.390625 C 6.816406 -70.253906 7.5 -71 8.375 -71.625 C 9.113281 -72.125 9.921875 -72.375 10.796875 -72.375 L 11.15625 -72.375 C 11.53125 -72.375 11.96875 -72.3125 12.46875 -72.1875 C 13.082031 -72.0625 13.640625 -71.8125 14.140625 -71.4375 Z M 45.390625 -52.46875 C 42.171875 -51.96875 38.328125 -50.164062 33.859375 -47.0625 C 29.515625 -43.84375 25.546875 -40 21.953125 -35.53125 C 19.597656 -32.675781 17.179688 -28.957031 14.703125 -24.375 C 12.097656 -19.78125 11.039062 -17.238281 11.53125 -16.75 C 12.40625 -16 14.578125 -15.625 18.046875 -15.625 C 21.515625 -15.625 24.550781 -16 27.15625 -16.75 C 32.738281 -18.476562 37.703125 -21.765625 42.046875 -26.609375 C 46.503906 -31.566406 49.359375 -36.835938 50.609375 -42.421875 C 51.347656 -45.640625 51.347656 -48.117188 50.609375 -49.859375 C 49.859375 -51.597656 48.429688 -52.46875 46.328125 -52.46875 Z M 45.390625 -52.46875 "/></g></g><g style="fill:#000000;fill-opacity:1;"><g transform="translate(381.259023, 325.27265)"><path style="stroke:none" d="M 36.09375 -52.828125 C 36.832031 -51.347656 37.140625 -49.425781 37.015625 -47.0625 C 36.890625 -44.582031 36.457031 -42.351562 35.71875 -40.375 C 34.226562 -37.144531 31.5625 -34.101562 27.71875 -31.25 C 23.875 -28.519531 19.65625 -26.597656 15.0625 -25.484375 C 11.96875 -24.867188 10.234375 -24.4375 9.859375 -24.1875 C 9.484375 -23.9375 9.421875 -23.128906 9.671875 -21.765625 C 10.535156 -17.546875 12.582031 -14.382812 15.8125 -12.28125 C 19.039062 -10.050781 22.820312 -9.367188 27.15625 -10.234375 C 32.988281 -11.222656 38.941406 -14.257812 45.015625 -19.34375 C 51.097656 -24.3125 56.929688 -30.882812 62.515625 -39.0625 C 62.515625 -39.1875 62.570312 -39.3125 62.6875 -39.4375 C 62.6875 -39.5625 62.75 -39.6875 62.875 -39.8125 C 63.75 -41.175781 65.363281 -41.734375 67.71875 -41.484375 C 69.945312 -41.234375 71.5 -40.242188 72.375 -38.515625 C 72.613281 -38.015625 72.734375 -37.332031 72.734375 -36.46875 L 72.734375 -36.09375 C 72.609375 -34.976562 72.175781 -33.800781 71.4375 -32.5625 C 66.101562 -24.5 60.210938 -17.675781 53.765625 -12.09375 C 47.316406 -6.632812 40.804688 -2.851562 34.234375 -0.75 C 31.878906 0.125 29.085938 0.6875 25.859375 0.9375 C 24.617188 1.050781 23.441406 1.109375 22.328125 1.109375 C 20.585938 1.109375 19.097656 0.925781 17.859375 0.5625 C 11.035156 -0.800781 5.828125 -4.585938 2.234375 -10.796875 C -0.492188 -15.503906 -1.859375 -20.835938 -1.859375 -26.796875 C -1.859375 -28.648438 -1.734375 -30.570312 -1.484375 -32.5625 C -0.367188 -40.738281 2.476562 -47.492188 7.0625 -52.828125 C 11.78125 -58.035156 17.113281 -60.640625 23.0625 -60.640625 C 25.789062 -60.640625 28.335938 -59.898438 30.703125 -58.421875 C 33.054688 -57.054688 34.851562 -55.191406 36.09375 -52.828125 Z M 10.96875 -37.765625 C 10.851562 -37.140625 10.851562 -36.769531 10.96875 -36.65625 C 11.09375 -36.53125 11.59375 -36.46875 12.46875 -36.46875 C 12.957031 -36.46875 13.765625 -36.648438 14.890625 -37.015625 C 16.003906 -37.265625 17.054688 -37.703125 18.046875 -38.328125 C 21.390625 -39.816406 23.742188 -41.738281 25.109375 -44.09375 C 26.597656 -46.570312 26.476562 -48.304688 24.75 -49.296875 L 23.625 -49.671875 L 22.515625 -49.671875 C 20.523438 -49.546875 18.351562 -48.304688 16 -45.953125 C 13.644531 -43.722656 11.96875 -40.992188 10.96875 -37.765625 Z M 10.96875 -37.765625 "/></g></g><g style="fill:#000000;fill-opacity:1;"><g transform="translate(438.043361, 325.27265)"><path style="stroke:none" d=""/></g></g><g style="fill:#000000;fill-opacity:1;"><g transform="translate(483.480334, 325.27265)"><path style="stroke:none" d="M 160.171875 32.375 C 154.835938 28.40625 150.5 23.253906 147.15625 16.921875 C 143.925781 10.472656 141.566406 2.535156 140.078125 -6.890625 C 139.835938 -8.617188 139.59375 -11.53125 139.34375 -15.625 C 138.96875 -19.59375 138.78125 -23.625 138.78125 -27.71875 C 138.40625 -38.882812 138.65625 -49.425781 139.53125 -59.34375 C 140.394531 -69.394531 141.941406 -80.429688 144.171875 -92.453125 C 144.796875 -95.429688 145.234375 -97.914062 145.484375 -99.90625 C 145.734375 -101.882812 145.796875 -103 145.671875 -103.25 C 145.421875 -103.375 144.613281 -102.753906 143.25 -101.390625 C 141.882812 -100.023438 140.269531 -98.226562 138.40625 -96 C 130.84375 -87.1875 124.023438 -78.503906 117.953125 -69.953125 C 111.742188 -61.390625 104.859375 -51.09375 97.296875 -39.0625 C 89.734375 -27.03125 84.335938 -19.46875 81.109375 -16.375 C 78.003906 -13.269531 74.84375 -12.523438 71.625 -14.140625 C 68.15625 -15.753906 66.234375 -20.40625 65.859375 -28.09375 C 65.484375 -35.90625 66.535156 -49.300781 69.015625 -68.28125 C 69.765625 -74.476562 70.320312 -79.5 70.6875 -83.34375 C 70.9375 -87.0625 71.0625 -91.21875 71.0625 -95.8125 C 71.0625 -101.269531 71 -104.617188 70.875 -105.859375 C 70.75 -107.222656 70.378906 -108.210938 69.765625 -108.828125 C 69.265625 -109.328125 68.769531 -109.640625 68.28125 -109.765625 C 67.90625 -109.765625 67.160156 -109.640625 66.046875 -109.390625 C 63.191406 -108.640625 59.46875 -106.84375 54.875 -104 C 50.289062 -101.144531 45.640625 -97.859375 40.921875 -94.140625 C 38.441406 -92.273438 36.023438 -90.289062 33.671875 -88.1875 C 31.316406 -86.070312 29.207031 -84.023438 27.34375 -82.046875 C 24.613281 -79.316406 22.445312 -76.832031 20.84375 -74.59375 C 19.226562 -72.488281 17.863281 -70.195312 16.75 -67.71875 C 15.132812 -64.125 14.515625 -61.023438 14.890625 -58.421875 C 15.253906 -55.816406 16.738281 -52.898438 19.34375 -49.671875 C 21.332031 -47.191406 22.507812 -45.269531 22.875 -43.90625 C 23.125 -42.664062 22.628906 -41.425781 21.390625 -40.1875 C 20.148438 -38.820312 18.785156 -38.265625 17.296875 -38.515625 C 15.691406 -38.640625 14.082031 -39.503906 12.46875 -41.109375 C 9.738281 -43.585938 7.566406 -46.503906 5.953125 -49.859375 C 4.460938 -53.203125 3.71875 -56.550781 3.71875 -59.90625 C 3.71875 -67.46875 7.253906 -75.59375 14.328125 -84.28125 C 21.390625 -92.957031 31.617188 -101.757812 45.015625 -110.6875 C 53.453125 -116.269531 60.273438 -119.554688 65.484375 -120.546875 C 66.597656 -120.671875 67.648438 -120.734375 68.640625 -120.734375 C 72.367188 -120.734375 75.410156 -119.367188 77.765625 -116.640625 C 79.617188 -114.535156 80.984375 -111.867188 81.859375 -108.640625 C 82.597656 -105.421875 82.78125 -100.585938 82.40625 -94.140625 C 82.289062 -90.785156 81.984375 -86.816406 81.484375 -82.234375 C 81.109375 -77.640625 80.550781 -72.304688 79.8125 -66.234375 C 78.695312 -57.171875 77.890625 -48.984375 77.390625 -41.671875 C 76.890625 -34.359375 76.828125 -30.453125 77.203125 -29.953125 C 77.578125 -29.578125 78.195312 -29.945312 79.0625 -31.0625 C 79.8125 -32.1875 82.414062 -36.28125 86.875 -43.34375 C 93.945312 -54.757812 101.203125 -65.613281 108.640625 -75.90625 C 116.085938 -86.195312 122.847656 -94.941406 128.921875 -102.140625 C 132.148438 -105.984375 135.128906 -109.207031 137.859375 -111.8125 C 140.578125 -114.539062 142.929688 -116.523438 144.921875 -117.765625 C 147.773438 -119.617188 150.441406 -120.113281 152.921875 -119.25 C 155.523438 -118.382812 157.140625 -116.398438 157.765625 -113.296875 C 158.003906 -111.554688 157.941406 -109.015625 157.578125 -105.671875 C 157.203125 -102.316406 156.269531 -96.671875 154.78125 -88.734375 C 153.289062 -80.304688 152.238281 -73.488281 151.625 -68.28125 C 150.875 -63.1875 150.3125 -57.046875 149.9375 -49.859375 C 149.570312 -43.410156 149.453125 -36.34375 149.578125 -28.65625 C 149.703125 -20.957031 150.070312 -14.941406 150.6875 -10.609375 C 151.1875 -6.765625 152.054688 -2.796875 153.296875 1.296875 C 154.410156 5.390625 155.585938 8.738281 156.828125 11.34375 C 157.691406 13.207031 158.679688 14.820312 159.796875 16.1875 C 160.796875 17.550781 162.410156 19.285156 164.640625 21.390625 C 166.992188 23.742188 168.484375 25.359375 169.109375 26.234375 C 169.722656 26.972656 170.03125 27.835938 170.03125 28.828125 C 170.03125 30.316406 169.535156 31.625 168.546875 32.75 C 167.554688 33.738281 166.378906 34.234375 165.015625 34.234375 C 164.390625 34.234375 163.644531 34.046875 162.78125 33.671875 C 161.914062 33.421875 161.046875 32.988281 160.171875 32.375 Z M 160.171875 32.375 "/></g></g><g style="fill:#000000;fill-opacity:1;"><g transform="translate(637.554426, 325.27265)"><path style="stroke:none" d="M 45.953125 -49.671875 C 46.441406 -48.679688 46.9375 -48 47.4375 -47.625 C 47.9375 -47.25 48.742188 -46.9375 49.859375 -46.6875 C 51.222656 -46.570312 52.398438 -45.953125 53.390625 -44.828125 C 54.378906 -43.835938 54.875 -42.722656 54.875 -41.484375 C 54.875 -41.109375 54.753906 -40.425781 54.515625 -39.4375 C 54.140625 -38.320312 53.703125 -37.207031 53.203125 -36.09375 C 51.960938 -33.488281 50.910156 -30.695312 50.046875 -27.71875 C 49.054688 -24.738281 48.5625 -22.628906 48.5625 -21.390625 C 48.5625 -20.648438 48.617188 -20.15625 48.734375 -19.90625 C 48.984375 -19.65625 49.359375 -19.53125 49.859375 -19.53125 C 50.359375 -19.53125 51.910156 -20.585938 54.515625 -22.703125 C 57.234375 -24.679688 60.207031 -27.160156 63.4375 -30.140625 C 65.300781 -31.753906 67.097656 -33.363281 68.828125 -34.96875 L 73.859375 -40 C 75.710938 -41.976562 77.632812 -41.976562 79.625 -40 C 80.863281 -38.757812 81.484375 -37.457031 81.484375 -36.09375 C 81.484375 -35.34375 81.234375 -34.597656 80.734375 -33.859375 C 78.503906 -30.878906 75.09375 -27.21875 70.5 -22.875 C 65.789062 -18.414062 62.566406 -15.378906 60.828125 -13.765625 C 57.984375 -11.285156 55.195312 -9.550781 52.46875 -8.5625 C 50.851562 -7.9375 49.300781 -7.625 47.8125 -7.625 C 46.945312 -7.625 46.078125 -7.75 45.203125 -8 C 43.347656 -8.625 41.613281 -9.988281 40 -12.09375 C 38.507812 -14.320312 37.765625 -16.429688 37.765625 -18.421875 C 37.765625 -18.910156 37.703125 -19.34375 37.578125 -19.71875 C 37.453125 -20.09375 37.328125 -20.34375 37.203125 -20.46875 C 36.953125 -20.59375 36.394531 -20.40625 35.53125 -19.90625 C 34.664062 -19.53125 33.675781 -18.972656 32.5625 -18.234375 C 22.882812 -11.785156 14.382812 -9.117188 7.0625 -10.234375 C -0.125 -11.472656 -3.71875 -16.125 -3.71875 -24.1875 C -3.71875 -27.164062 -3.222656 -30.140625 -2.234375 -33.109375 C -1.242188 -36.085938 0.117188 -38.941406 1.859375 -41.671875 C 5.085938 -46.753906 9.242188 -51.035156 14.328125 -54.515625 C 19.410156 -57.984375 24.554688 -59.71875 29.765625 -59.71875 C 33.109375 -59.71875 36.269531 -58.847656 39.25 -57.109375 C 42.101562 -55.253906 44.335938 -52.773438 45.953125 -49.671875 Z M 28.65625 -48.734375 C 26.414062 -48.492188 24.179688 -47.691406 21.953125 -46.328125 C 19.722656 -44.960938 17.550781 -43.160156 15.4375 -40.921875 C 12.34375 -37.578125 9.988281 -33.921875 8.375 -29.953125 C 6.757812 -25.859375 6.570312 -23.128906 7.8125 -21.765625 C 8.4375 -20.898438 9.863281 -20.648438 12.09375 -21.015625 C 14.320312 -21.390625 16.800781 -22.257812 19.53125 -23.625 C 22.507812 -24.988281 25.363281 -26.601562 28.09375 -28.46875 C 30.820312 -30.320312 33.425781 -32.425781 35.90625 -34.78125 C 36.769531 -35.53125 38.070312 -36.710938 39.8125 -38.328125 C 39.3125 -39.191406 38.503906 -40.492188 37.390625 -42.234375 C 35.898438 -44.710938 34.660156 -46.445312 33.671875 -47.4375 C 32.679688 -48.300781 31.441406 -48.734375 29.953125 -48.734375 Z M 28.65625 -48.734375 "/></g></g><g style="fill:#000000;fill-opacity:1;"><g transform="translate(705.128094, 325.27265)"><path style="stroke:none" d="M 12.28125 13.015625 C 10.164062 12.148438 7.929688 10.351562 5.578125 7.625 C 3.222656 4.769531 1.675781 2.101562 0.9375 -0.375 C -0.925781 -6.445312 -1.550781 -14.507812 -0.9375 -24.5625 C -0.3125 -34.476562 1.613281 -47.4375 4.84375 -63.4375 C 5.457031 -66.289062 6.015625 -68.894531 6.515625 -71.25 C 6.878906 -73.476562 7.0625 -74.78125 7.0625 -75.15625 C 7.1875 -75.53125 6.878906 -75.84375 6.140625 -76.09375 C 5.515625 -76.332031 4.210938 -76.578125 2.234375 -76.828125 C -0.742188 -77.203125 -3.410156 -77.882812 -5.765625 -78.875 C -8.242188 -79.988281 -10.476562 -81.351562 -12.46875 -82.96875 C -13.957031 -84.332031 -15.007812 -85.570312 -15.625 -86.6875 C -16 -87.4375 -16.1875 -88.179688 -16.1875 -88.921875 C -16.1875 -89.421875 -16.125 -89.914062 -16 -90.40625 C -15.375 -92.394531 -14.007812 -93.578125 -11.90625 -93.953125 C -9.925781 -94.316406 -8.003906 -93.695312 -6.140625 -92.09375 C -4.523438 -90.726562 -2.847656 -89.734375 -1.109375 -89.109375 C 0.492188 -88.367188 2.476562 -87.9375 4.84375 -87.8125 L 8.1875 -87.8125 C 9.175781 -87.9375 9.796875 -88.0625 10.046875 -88.1875 C 10.171875 -88.425781 10.476562 -89.289062 10.96875 -90.78125 C 11.46875 -92.394531 12.03125 -94.253906 12.65625 -96.359375 C 15.007812 -105.296875 16.804688 -111.5625 18.046875 -115.15625 C 19.285156 -118.75 20.398438 -120.984375 21.390625 -121.859375 C 22.628906 -122.722656 23.75 -123.21875 24.75 -123.34375 C 24.863281 -123.34375 24.984375 -123.28125 25.109375 -123.15625 C 26.234375 -123.15625 27.351562 -122.472656 28.46875 -121.109375 C 29.582031 -119.992188 30.015625 -118.753906 29.765625 -117.390625 C 29.640625 -116.023438 28.398438 -111.3125 26.046875 -103.25 C 25.054688 -99.78125 24.3125 -96.863281 23.8125 -94.5 C 23.1875 -92.269531 22.9375 -91.03125 23.0625 -90.78125 C 23.3125 -90.65625 23.992188 -90.59375 25.109375 -90.59375 C 26.347656 -90.71875 27.710938 -90.90625 29.203125 -91.15625 C 34.285156 -91.90625 39.4375 -92.28125 44.65625 -92.28125 C 49.863281 -92.15625 54.140625 -91.65625 57.484375 -90.78125 C 59.710938 -90.164062 60.707031 -88.054688 60.46875 -84.453125 C 60.21875 -80.859375 58.539062 -79.375 55.4375 -80 C 51.71875 -80.738281 47.441406 -81.109375 42.609375 -81.109375 C 37.765625 -81.109375 32.925781 -80.675781 28.09375 -79.8125 C 25.863281 -79.4375 23.941406 -79.0625 22.328125 -78.6875 C 20.710938 -78.320312 19.84375 -78.078125 19.71875 -77.953125 C 19.34375 -77.703125 18.472656 -74.476562 17.109375 -68.28125 C 15.742188 -62.195312 14.441406 -55.625 13.203125 -48.5625 C 12.335938 -44.46875 11.71875 -40.617188 11.34375 -37.015625 C 10.976562 -33.421875 10.609375 -29.207031 10.234375 -24.375 C 9.859375 -18.414062 9.734375 -14.507812 9.859375 -12.65625 C 9.859375 -10.789062 10.109375 -8.804688 10.609375 -6.703125 C 11.722656 -2.609375 13.332031 0.242188 15.4375 1.859375 C 17.550781 3.597656 20.28125 4.09375 23.625 3.34375 C 28.707031 2.351562 34.847656 -1.675781 42.046875 -8.75 C 49.234375 -15.6875 56.054688 -24.304688 62.515625 -34.609375 C 63.628906 -36.335938 64.742188 -37.882812 65.859375 -39.25 C 66.972656 -40.738281 67.71875 -41.609375 68.09375 -41.859375 C 69.820312 -42.847656 71.554688 -42.847656 73.296875 -41.859375 C 75.035156 -40.867188 75.90625 -39.441406 75.90625 -37.578125 L 75.90625 -37.203125 C 75.78125 -35.347656 74.226562 -32.0625 71.25 -27.34375 C 68.144531 -22.632812 64.550781 -17.800781 60.46875 -12.84375 C 58.351562 -10.113281 56.117188 -7.503906 53.765625 -5.015625 C 51.535156 -2.535156 49.425781 -0.367188 47.4375 1.484375 C 44.21875 4.335938 41.304688 6.632812 38.703125 8.375 C 36.085938 10.101562 33.359375 11.53125 30.515625 12.65625 C 28.523438 13.519531 26.910156 14.015625 25.671875 14.140625 C 24.804688 14.390625 23.566406 14.515625 21.953125 14.515625 C 21.453125 14.515625 20.957031 14.453125 20.46875 14.328125 C 18.601562 14.328125 16.988281 14.203125 15.625 13.953125 C 14.382812 13.828125 13.269531 13.515625 12.28125 13.015625 Z M 12.28125 13.015625 "/></g></g><g style="fill:#000000;fill-opacity:1;"><g transform="translate(765.818893, 325.27265)"><path style="stroke:none" d="M 11.15625 -4.46875 C 10.164062 -4.71875 9.238281 -5.148438 8.375 -5.765625 C 7.382812 -6.265625 6.265625 -7.195312 5.015625 -8.5625 C 2.660156 -10.789062 1.113281 -13.207031 0.375 -15.8125 C -0.25 -18.289062 -0.5625 -22.445312 -0.5625 -28.28125 L -0.5625 -42.96875 C -0.4375 -44.957031 0.179688 -46.320312 1.296875 -47.0625 C 2.535156 -47.8125 3.773438 -48.125 5.015625 -48 C 6.503906 -47.875 7.867188 -47.378906 9.109375 -46.515625 C 10.234375 -45.515625 10.671875 -44.394531 10.421875 -43.15625 L 10.421875 -34.78125 C 10.296875 -31.3125 10.296875 -27.90625 10.421875 -24.5625 C 10.671875 -21.332031 11.039062 -19.160156 11.53125 -18.046875 C 12.15625 -16.804688 12.648438 -16.0625 13.015625 -15.8125 C 13.515625 -15.5625 14.507812 -15.375 16 -15.25 C 19.226562 -15.125 23.070312 -16.613281 27.53125 -19.71875 C 32 -22.945312 36.21875 -27.164062 40.1875 -32.375 C 41.550781 -34.101562 42.789062 -35.585938 43.90625 -36.828125 C 45.144531 -38.078125 45.953125 -38.820312 46.328125 -39.0625 C 48.054688 -39.6875 49.664062 -39.441406 51.15625 -38.328125 C 52.644531 -37.328125 53.390625 -35.898438 53.390625 -34.046875 C 53.390625 -33.179688 53.140625 -32.25 52.640625 -31.25 C 52.273438 -30.257812 51.535156 -29.019531 50.421875 -27.53125 C 46.078125 -21.457031 41.175781 -16.3125 35.71875 -12.09375 C 30.382812 -8 25.238281 -5.457031 20.28125 -4.46875 C 18.289062 -3.96875 16.800781 -3.71875 15.8125 -3.71875 C 14.695312 -3.84375 13.144531 -4.09375 11.15625 -4.46875 Z M 2.984375 -58.234375 C 1.734375 -58.722656 0.863281 -59.585938 0.375 -60.828125 C -0.25 -62.066406 -0.5625 -63.867188 -0.5625 -66.234375 C -0.5625 -68.460938 -0.3125 -70.257812 0.1875 -71.625 C 0.6875 -72.988281 1.554688 -74.226562 2.796875 -75.34375 C 3.910156 -76.332031 4.960938 -76.953125 5.953125 -77.203125 L 7.0625 -77.203125 C 7.8125 -77.203125 8.617188 -77.078125 9.484375 -76.828125 C 11.597656 -76.085938 13.085938 -74.601562 13.953125 -72.375 C 14.816406 -70.132812 14.878906 -67.46875 14.140625 -64.375 C 13.640625 -62.007812 12.832031 -60.269531 11.71875 -59.15625 C 10.726562 -58.164062 9.238281 -57.671875 7.25 -57.671875 C 6.382812 -57.671875 5.582031 -57.734375 4.84375 -57.859375 C 3.96875 -57.984375 3.347656 -58.109375 2.984375 -58.234375 Z M 2.984375 -58.234375 "/></g></g><g style="fill:#000000;fill-opacity:1;"><g transform="translate(805.675213, 325.27265)"><path style="stroke:none" d="M 24.1875 -53.203125 C 30.007812 -48.984375 35.28125 -46.007812 40 -44.28125 C 44.832031 -42.539062 50.164062 -41.609375 56 -41.484375 L 61.953125 -41.484375 C 63.679688 -41.484375 64.859375 -41.546875 65.484375 -41.671875 C 66.847656 -41.796875 68.148438 -41.300781 69.390625 -40.1875 C 70.628906 -39.070312 71.1875 -37.832031 71.0625 -36.46875 L 71.0625 -36.28125 C 70.9375 -34.039062 70.070312 -32.550781 68.46875 -31.8125 C 66.851562 -30.945312 63.6875 -30.390625 58.96875 -30.140625 C 56.613281 -30.015625 54.503906 -30.015625 52.640625 -30.140625 C 50.910156 -30.265625 49.113281 -30.507812 47.25 -30.875 C 45.757812 -31.125 44.457031 -31.375 43.34375 -31.625 C 42.226562 -31.75 41.609375 -31.75 41.484375 -31.625 C 41.234375 -31.625 41.046875 -31.128906 40.921875 -30.140625 C 40.679688 -29.265625 40.5 -28.207031 40.375 -26.96875 C 39.75 -23 38.132812 -19.34375 35.53125 -16 C 33.050781 -12.644531 29.953125 -10.164062 26.234375 -8.5625 C 24.492188 -7.9375 22.015625 -7.5625 18.796875 -7.4375 L 17.484375 -7.4375 C 14.878906 -7.4375 12.957031 -7.6875 11.71875 -8.1875 C 6.882812 -10.164062 3.226562 -13.328125 0.75 -17.671875 C -1.238281 -21.140625 -2.234375 -24.800781 -2.234375 -28.65625 C -2.234375 -29.769531 -2.109375 -30.945312 -1.859375 -32.1875 C -1.359375 -36.03125 -0.0546875 -39.5625 2.046875 -42.78125 C 4.023438 -46.132812 7.1875 -49.859375 11.53125 -53.953125 C 12.769531 -55.066406 13.765625 -55.875 14.515625 -56.375 C 15.253906 -56.863281 16.054688 -57.109375 16.921875 -57.109375 L 17.109375 -57.109375 C 17.984375 -57.109375 18.914062 -56.738281 19.90625 -56 C 21.019531 -55.375 22.445312 -54.441406 24.1875 -53.203125 Z M 11.15625 -36.65625 C 9.300781 -33.300781 8.5625 -30.015625 8.9375 -26.796875 C 9.425781 -23.691406 10.972656 -21.332031 13.578125 -19.71875 C 14.941406 -18.851562 16.242188 -18.359375 17.484375 -18.234375 C 18.722656 -18.109375 20.085938 -18.296875 21.578125 -18.796875 C 23.804688 -19.535156 25.726562 -21.144531 27.34375 -23.625 C 29.082031 -26.101562 29.828125 -28.582031 29.578125 -31.0625 C 29.453125 -33.425781 28.460938 -35.472656 26.609375 -37.203125 C 24.867188 -38.816406 22.382812 -40.117188 19.15625 -41.109375 C 18.539062 -41.234375 18.046875 -41.296875 17.671875 -41.296875 C 17.171875 -41.421875 16.800781 -41.484375 16.5625 -41.484375 C 15.445312 -41.609375 14.515625 -41.300781 13.765625 -40.5625 C 13.148438 -39.8125 12.28125 -38.507812 11.15625 -36.65625 Z M 11.15625 -36.65625 "/></g></g><g style="fill:#000000;fill-opacity:1;"><g transform="translate(863.761674, 325.27265)"><path style="stroke:none" d="M 60.640625 -2.796875 C 57.921875 -3.660156 55.628906 -5.582031 53.765625 -8.5625 C 51.898438 -11.65625 49.664062 -17.109375 47.0625 -24.921875 C 45.207031 -30.753906 43.722656 -34.785156 42.609375 -37.015625 C 41.484375 -39.128906 40.425781 -40.125 39.4375 -40 C 37.695312 -39.625 35.40625 -38.007812 32.5625 -35.15625 C 29.582031 -32.1875 25.675781 -27.472656 20.84375 -21.015625 C 18.601562 -18.171875 16.675781 -16.128906 15.0625 -14.890625 C 13.582031 -13.640625 12.097656 -13.015625 10.609375 -13.015625 C 6.878906 -13.015625 4.335938 -14.941406 2.984375 -18.796875 C 1.617188 -22.515625 0.75 -29.769531 0.375 -40.5625 C 0.25 -43.53125 0.125 -47.929688 0 -53.765625 L 1.671875 -55.4375 C 2.785156 -56.550781 4.085938 -57.109375 5.578125 -57.109375 L 5.765625 -57.109375 C 7.128906 -57.109375 8.304688 -56.613281 9.296875 -55.625 C 10.046875 -55 10.484375 -54.003906 10.609375 -52.640625 C 10.847656 -51.398438 11.09375 -47.867188 11.34375 -42.046875 C 11.34375 -38.816406 11.46875 -35.960938 11.71875 -33.484375 C 11.96875 -31.003906 12.15625 -29.640625 12.28125 -29.390625 C 12.40625 -29.265625 12.960938 -29.757812 13.953125 -30.875 C 15.066406 -31.875 16.304688 -33.238281 17.671875 -34.96875 C 22.015625 -40.425781 25.921875 -44.457031 29.390625 -47.0625 C 32.867188 -49.539062 36.21875 -50.90625 39.4375 -51.15625 C 42.289062 -51.40625 44.832031 -50.785156 47.0625 -49.296875 C 49.175781 -47.679688 51.097656 -45.203125 52.828125 -41.859375 C 53.203125 -40.992188 53.882812 -39.378906 54.875 -37.015625 C 55.75 -34.535156 56.554688 -31.992188 57.296875 -29.390625 C 59.035156 -23.804688 60.398438 -19.898438 61.390625 -17.671875 C 62.378906 -15.441406 63.1875 -14.328125 63.8125 -14.328125 C 64.425781 -14.328125 65.851562 -15.9375 68.09375 -19.15625 C 70.445312 -22.257812 73.050781 -26.289062 75.90625 -31.25 C 79 -36.332031 80.921875 -39.375 81.671875 -40.375 C 82.535156 -41.363281 83.585938 -41.984375 84.828125 -42.234375 C 86.191406 -42.484375 87.367188 -42.296875 88.359375 -41.671875 C 89.359375 -41.171875 90.101562 -40.300781 90.59375 -39.0625 C 90.84375 -38.320312 90.96875 -37.578125 90.96875 -36.828125 C 90.96875 -36.210938 90.84375 -35.53125 90.59375 -34.78125 C 90.101562 -33.425781 88.617188 -30.578125 86.140625 -26.234375 C 80.929688 -17.671875 76.835938 -11.71875 73.859375 -8.375 C 70.753906 -5.019531 67.710938 -3.097656 64.734375 -2.609375 L 62.6875 -2.609375 C 61.820312 -2.609375 61.140625 -2.671875 60.640625 -2.796875 Z M 60.640625 -2.796875 "/></g></g></g></svg>